<?xml version="1.0" encoding="utf-8"?>
<!-- Generator: Adobe Illustrator 15.0.0, SVG Export Plug-In . SVG Version: 6.00 Build 0)  -->
<!DOCTYPE svg PUBLIC "-//W3C//DTD SVG 1.1//EN" "http://www.w3.org/Graphics/SVG/1.1/DTD/svg11.dtd">
<svg version="1.1" id="Layer_1" xmlns="http://www.w3.org/2000/svg" xmlns:xlink="http://www.w3.org/1999/xlink" x="0px" y="0px"
	 width="66px" height="64.746px" viewBox="0 0 66 64.746" enable-background="new 0 0 66 64.746" xml:space="preserve">
<g>
	<polygon fill="#69B643" points="64.814,31.272 64.815,31.273 64.818,31.276 	"/>
	<path fill="#69B643" d="M64.815,31.273c-0.82-0.938-1.983-1.51-3.228-1.586c-1.232-0.079-2.444,0.336-3.369,1.154l-10.367,9.252
		c-0.029-0.174-0.066-0.342-0.108-0.5c-0.372-1.412-1.347-2.589-2.665-3.217c-2.057-0.83-4.9-0.442-7.648-0.066
		c-1.605,0.311-3.246,0.411-4.878,0.3c-0.723-0.169-1.424-0.421-2.089-0.751c-3.188-1.58-6.842-1.945-10.281-1.029
		c-2.467,0.588-4.724,1.846-6.522,3.633v-2.441c0-0.674-0.545-1.219-1.218-1.221c0,0-0.001,0-0.002,0H1.219
		c-0.673,0-1.22,0.547-1.22,1.221v27.5c0,0.674,0.546,1.221,1.22,1.221h11.22c0.674,0,1.22-0.547,1.22-1.221v-5.62
		c4.23,0.997,8.547,1.583,12.891,1.751c5.649-0.017,11.249-1.054,16.53-3.061c7.699-3.313,20.381-17.606,21.408-18.775
		c0.896-0.816,1.435-1.951,1.5-3.162C66.061,33.416,65.639,32.2,64.815,31.273z M11.219,62.307h-8.78V37.242h8.78V62.307z
		 M62.814,36.048h-0.002c-0.04,0.035-0.077,0.072-0.111,0.111c-0.133,0.15-13.233,15.032-20.586,18.2
		c-4.974,1.883-10.246,2.853-15.564,2.863c-4.345-0.192-8.662-0.8-12.891-1.813v-13.24c1.697-2.422,4.188-4.172,7.04-4.951
		c2.933-0.811,6.062-0.496,8.777,0.878c0.841,0.413,1.729,0.722,2.645,0.92c1.883,0.177,3.782,0.081,5.638-0.281
		c2.321-0.317,4.952-0.676,6.4-0.09c0.611,0.347,1.057,0.927,1.23,1.608c0.221,0.912-0.008,1.875-0.615,2.59l-1.022,0.914
		c-0.01,0.009-0.015,0.021-0.022,0.031c-3.344,2.307-12.387,5.064-16.368,4.75c-0.67-0.053-1.257,0.449-1.31,1.119
		c0,0.002,0,0.004,0,0.006c-0.051,0.672,0.451,1.258,1.123,1.31c0.25,0.019,0.517,0.026,0.8,0.026c5.343,0,15.918-3.361,18.57-6.463
		L59.84,32.671c0.438-0.391,1.015-0.588,1.6-0.547c0.6,0.037,1.158,0.313,1.552,0.766c0.397,0.447,0.602,1.033,0.567,1.631
		C63.525,35.109,63.258,35.66,62.814,36.048z"/>
	<path fill="#69B643" d="M14.158,26.268h33.3c0.437,0,0.815-0.298,0.922-0.721c0.036-0.061,0.065-0.126,0.085-0.194l4.512-15.792
		C53.058,9.274,53,8.965,52.82,8.727l-0.004,0.001c-0.18-0.238-0.46-0.378-0.758-0.379h-3.562V4.415
		c-0.001-0.524-0.425-0.95-0.95-0.951L27.624,3.439L24.465,0.28c-0.179-0.178-0.42-0.277-0.672-0.278h-9.635
		c-0.525,0-0.951,0.426-0.951,0.951v24.364C13.208,25.842,13.633,26.268,14.158,26.268z M50.801,10.249L46.77,24.364H15.36
		l4.033-14.115H50.801z M15.109,1.902h8.29l3.158,3.158c0.177,0.179,0.419,0.28,0.672,0.279l19.366,0.024v2.986H18.67
		c-0.424,0.001-0.796,0.283-0.914,0.69l-2.647,9.263V1.902z"/>
</g>
</svg>
