<?xml version="1.0" encoding="utf-8"?>
<!-- Generator: Adobe Illustrator 15.0.0, SVG Export Plug-In . SVG Version: 6.00 Build 0)  -->
<!DOCTYPE svg PUBLIC "-//W3C//DTD SVG 1.1//EN" "http://www.w3.org/Graphics/SVG/1.1/DTD/svg11.dtd">
<svg version="1.1" id="Layer_1" xmlns="http://www.w3.org/2000/svg" xmlns:xlink="http://www.w3.org/1999/xlink" x="0px" y="0px"
	 width="86.904px" height="53.941px" viewBox="0 0 86.904 53.941" enable-background="new 0 0 86.904 53.941" xml:space="preserve">
<g>
	<path fill="#69B643" d="M69.395,19.503l0.001,0.005c-2.368,0-4.713,0.476-6.894,1.4C61.197,8.952,51.061-0.081,39.034-0.007
		C26.129-0.103,15.581,10.264,15.455,23.169c0,1.375,0.126,2.748,0.375,4.101c-0.725-0.119-1.457-0.179-2.19-0.179
		C6.17,27.039,0.067,33.043-0.003,40.512c0.07,7.47,6.173,13.474,13.643,13.422h56.308c0.114,0,0.229-0.014,0.34-0.04
		c9.246-0.348,16.574-7.923,16.614-17.176C86.81,27.135,78.979,19.434,69.395,19.503z M69.896,50.915l0.003,0.003
		c-0.077,0.003-0.155,0.012-0.231,0.026H13.643C7.828,50.997,3.067,46.335,2.997,40.52c0.067-5.816,4.83-10.48,10.646-10.427
		c1.27,0.003,2.529,0.229,3.72,0.67c0.533,0.194,1.131,0.071,1.544-0.317c0.412-0.391,0.568-0.979,0.404-1.523
		c-0.566-1.862-0.855-3.799-0.857-5.746c0.124-11.25,9.331-20.276,20.582-20.18c11.232-0.102,20.435,8.897,20.583,20.13
		c0,0.037-0.008,0.134-0.008,0.17c0.002,0.538,0.291,1.034,0.759,1.301c0.469,0.266,1.044,0.259,1.507-0.017
		c2.272-1.357,4.87-2.074,7.518-2.077c7.929-0.07,14.42,6.29,14.51,14.219C83.855,44.469,77.641,50.763,69.896,50.915z"/>
	<path fill="#69B643" d="M35.485,30.223c0.008-0.309-0.109-0.606-0.323-0.828c-0.22-0.228-0.522-0.356-0.838-0.357
		c-0.299,0.001-0.586,0.117-0.801,0.324l-2.421,2.324c-0.006-0.134-0.009-0.27-0.009-0.407c0.007-5.258,4.268-9.518,9.525-9.523
		c2.523-0.006,4.944,0.995,6.727,2.781c0.218,0.218,0.513,0.339,0.82,0.338c0.309,0.001,0.604-0.122,0.821-0.341
		c0.219-0.218,0.341-0.513,0.34-0.821c0-0.308-0.123-0.604-0.343-0.82l0.001,0.002c-2.216-2.223-5.228-3.468-8.365-3.459
		c-6.458,0.007-11.724,5.18-11.846,11.637l-1.78-1.709c-0.216-0.207-0.502-0.323-0.801-0.323c-0.315,0.001-0.618,0.13-0.838,0.357
		c-0.442,0.463-0.428,1.197,0.034,1.642l4.069,3.906c0.215,0.207,0.501,0.323,0.8,0.324c0.299-0.001,0.585-0.117,0.8-0.324
		l4.07-3.907C35.351,30.825,35.48,30.531,35.485,30.223z"/>
	<path fill="#69B643" d="M51.963,27.329c-0.215-0.207-0.502-0.323-0.8-0.324c-0.299,0.001-0.586,0.117-0.801,0.324l-4.069,3.907
		c-0.224,0.213-0.352,0.507-0.357,0.814c-0.007,0.309,0.109,0.606,0.323,0.828c0.22,0.228,0.521,0.356,0.838,0.357
		c0.299,0,0.585-0.116,0.8-0.324l2.421-2.324c0.007,0.134,0.01,0.27,0.01,0.407c-0.007,5.258-4.268,9.518-9.525,9.523
		c-2.524,0.007-4.947-0.995-6.729-2.783c-0.218-0.218-0.513-0.339-0.82-0.338c-0.309-0.001-0.604,0.122-0.822,0.341
		c-0.218,0.218-0.34,0.513-0.339,0.821c-0.001,0.308,0.122,0.604,0.341,0.82h0.001c2.217,2.223,5.228,3.468,8.366,3.459
		c6.459-0.007,11.725-5.18,11.846-11.638l1.781,1.71c0.215,0.207,0.502,0.323,0.8,0.323c0.316-0.001,0.618-0.13,0.838-0.357
		c0.443-0.463,0.429-1.197-0.032-1.642L51.963,27.329z"/>
</g>
</svg>
