<?xml version="1.0" encoding="utf-8"?>
<!-- Generator: Adobe Illustrator 15.0.0, SVG Export Plug-In . SVG Version: 6.00 Build 0)  -->
<!DOCTYPE svg PUBLIC "-//W3C//DTD SVG 1.1//EN" "http://www.w3.org/Graphics/SVG/1.1/DTD/svg11.dtd">
<svg version="1.1" id="Layer_1" xmlns="http://www.w3.org/2000/svg" xmlns:xlink="http://www.w3.org/1999/xlink" x="0px" y="0px"
	 width="61.907px" height="65.525px" viewBox="0 0 61.907 65.525" enable-background="new 0 0 61.907 65.525" xml:space="preserve">
<g>
	<path fill="#69B643" d="M44.316,41.373c-0.237,0.2-0.376,0.495-0.379,0.807v21.562c0,0.591,0.479,1.07,1.071,1.07
		c0.592,0.001,1.071-0.479,1.072-1.069c0-0.001,0-0.001,0-0.001V42.673c3.035-2.772,5.32-6.268,6.644-10.16
		c-0.866,0.42-1.769,0.762-2.695,1.021C48.723,36.534,46.773,39.211,44.316,41.373z"/>
	<path fill="#69B643" d="M45.717,14.303c-1.936,0.002-3.504,1.571-3.506,3.507c0.002,1.937,1.57,3.505,3.506,3.507
		c1.937-0.002,3.506-1.57,3.508-3.507C49.223,15.874,47.654,14.305,45.717,14.303z M45.717,20.191
		c-1.312-0.001-2.378-1.065-2.381-2.38c0.002-1.314,1.067-2.379,2.381-2.381v-0.001c1.314,0.002,2.38,1.066,2.382,2.381
		C48.097,19.124,47.032,20.19,45.717,20.191z"/>
	<path fill="#69B643" d="M61.903,17.899c-0.01-8.955-7.268-16.213-16.224-16.224c-1.817-0.002-3.622,0.302-5.337,0.9
		c0,0,0,0-0.001,0c-2.858-1.422-5.966-2.274-9.15-2.509l-0.002-0.001c-6.807-0.5-13.512,1.875-18.486,6.55
		c-4.97,4.652-7.795,11.152-7.806,17.961c0,0.916,0.05,1.831,0.15,2.741c-1.778,1.957-6.977,8.156-4.285,11.127
		c1.38,1.172,2.938,2.116,4.614,2.801v3.57c0,6.428,4.428,13.276,12.591,13.276l4.563,0.15v6.213c0,0.591,0.479,1.07,1.071,1.07
		s1.071-0.479,1.071-1.07v-7.292c0-0.578-0.458-1.053-1.036-1.071l-5.635-0.186c-6.913,0-10.484-5.601-10.484-11.135v-4.285
		c0-0.541-0.404-0.998-0.942-1.062c-1.528-0.574-2.954-1.393-4.221-2.421c-0.715-0.793,0.471-4.221,4.592-8.57
		c0.223-0.234,0.328-0.557,0.286-0.878c-0.129-0.982-0.194-1.973-0.194-2.964C7.044,18.364,9.63,12.417,14.18,8.165
		c4.538-4.26,10.654-6.423,16.861-5.963c2.299,0.17,4.559,0.693,6.7,1.55c-5.114,2.872-8.281,8.279-8.285,14.144
		c0.01,8.956,7.268,16.214,16.224,16.225c1.469,0.001,2.932-0.198,4.347-0.593c0.927-0.258,1.829-0.598,2.695-1.017
		c5.61-2.708,9.177-8.386,9.183-14.615L61.903,17.899z M53.53,29.537l0.004-0.001c-0.802,0.542-1.658,1-2.555,1.366
		c-1.682,0.688-3.482,1.041-5.3,1.038c-7.753-0.009-14.034-6.291-14.043-14.043c0.006-5.657,3.401-10.761,8.616-12.951
		C41.137,4.574,42.058,4.295,43,4.114c0.883-0.172,1.779-0.258,2.679-0.258c7.752,0.009,14.034,6.291,14.043,14.043
		C59.721,22.567,57.4,26.928,53.53,29.537z"/>
	<path fill="#69B643" d="M53.599,16.209l-1.886-0.285c-0.093-0.278-0.205-0.551-0.336-0.813l1.131-1.533
		c0.166-0.224,0.143-0.536-0.055-0.732l-1.601-1.6c-0.198-0.193-0.507-0.216-0.731-0.056l-1.529,1.126
		c-0.265-0.133-0.539-0.247-0.82-0.342l-0.284-1.875c-0.04-0.275-0.276-0.48-0.556-0.479h-2.258
		c-0.278-0.002-0.516,0.203-0.555,0.479l-0.285,1.875c-0.281,0.095-0.555,0.209-0.82,0.342l-1.528-1.126
		c-0.097-0.071-0.214-0.11-0.334-0.109c-0.149-0.001-0.294,0.059-0.399,0.165l-1.601,1.6c-0.198,0.196-0.222,0.509-0.055,0.732
		l1.131,1.533c-0.132,0.263-0.243,0.535-0.336,0.813l-1.886,0.285c-0.276,0.04-0.48,0.277-0.479,0.556v2.257
		c-0.001,0.278,0.202,0.516,0.478,0.557l1.9,0.287c0.093,0.273,0.205,0.541,0.334,0.8l-1.14,1.546
		c-0.167,0.224-0.144,0.536,0.055,0.731l1.601,1.601c0.198,0.193,0.506,0.217,0.731,0.056l1.552-1.145
		c0.256,0.127,0.521,0.236,0.793,0.328l0.289,1.907c0.04,0.275,0.277,0.479,0.555,0.479h2.254c0.278,0.001,0.516-0.203,0.556-0.479
		l0.288-1.906c0.271-0.092,0.536-0.201,0.792-0.328l1.554,1.145c0.096,0.072,0.213,0.11,0.334,0.11
		c0.149,0.001,0.293-0.059,0.399-0.165l1.601-1.601c0.197-0.195,0.221-0.508,0.055-0.731l-1.141-1.546
		c0.13-0.259,0.241-0.526,0.334-0.8l1.899-0.287c0.275-0.041,0.479-0.278,0.478-0.557v-2.257
		C54.079,16.488,53.875,16.249,53.599,16.209z M52.942,18.544l-1.77,0.268c-0.22,0.034-0.399,0.194-0.459,0.409
		c-0.115,0.425-0.285,0.833-0.506,1.214c-0.113,0.194-0.1,0.436,0.033,0.616l1.065,1.444l-0.911,0.911l-1.45-1.068
		c-0.181-0.13-0.42-0.144-0.614-0.035c-0.379,0.219-0.785,0.387-1.207,0.5c-0.217,0.058-0.377,0.238-0.41,0.459l-0.27,1.781h-1.289
		l-0.268-1.783c-0.033-0.222-0.194-0.402-0.41-0.46c-0.423-0.113-0.828-0.282-1.208-0.5c-0.194-0.109-0.434-0.096-0.614,0.035
		l-1.443,1.072l-0.91-0.911l1.064-1.444c0.133-0.181,0.146-0.422,0.034-0.616c-0.222-0.381-0.392-0.789-0.507-1.215
		c-0.059-0.215-0.238-0.374-0.459-0.408l-1.77-0.268v-1.289l1.76-0.266c0.222-0.033,0.402-0.195,0.459-0.412
		c0.115-0.43,0.285-0.843,0.507-1.229c0.112-0.193,0.098-0.435-0.035-0.615l-1.065-1.43l0.912-0.912l1.426,1.051
		c0.182,0.132,0.423,0.145,0.617,0.034c0.387-0.225,0.803-0.397,1.234-0.514c0.217-0.058,0.377-0.238,0.411-0.459l0.265-1.748h1.288
		l0.265,1.748c0.034,0.221,0.195,0.401,0.412,0.459c0.432,0.115,0.846,0.288,1.232,0.513c0.194,0.111,0.436,0.099,0.617-0.033
		l1.426-1.051l0.911,0.911l-1.056,1.431c-0.132,0.18-0.146,0.421-0.035,0.614c0.223,0.386,0.393,0.799,0.507,1.229
		c0.058,0.216,0.238,0.378,0.46,0.412l1.76,0.266V18.544z"/>
</g>
</svg>
