<?xml version="1.0" encoding="utf-8"?>
<!-- Generator: Adobe Illustrator 15.0.0, SVG Export Plug-In . SVG Version: 6.00 Build 0)  -->
<!DOCTYPE svg PUBLIC "-//W3C//DTD SVG 1.1//EN" "http://www.w3.org/Graphics/SVG/1.1/DTD/svg11.dtd">
<svg version="1.1" id="Layer_1" xmlns="http://www.w3.org/2000/svg" xmlns:xlink="http://www.w3.org/1999/xlink" x="0px" y="0px"
	 width="42.662px" height="53.521px" viewBox="0 0 42.662 53.521" enable-background="new 0 0 42.662 53.521" xml:space="preserve">
<g id="icon" transform="translate(-7 556.92)">
	<g>
		<g id="Group_35" transform="translate(7 -556.92)">
			<g id="Group_31" transform="translate(3.451 0.003)">
				<path id="Path_23" fill="#ffffff" d="M16.054,4.243h-0.147c-0.839-0.001-1.645,0.333-2.239,0.926
					c-0.594,0.594-0.928,1.399-0.927,2.239v1.177H7.454V1.757h16.468v6.817h-4.705V7.398c-0.009-1.741-1.422-3.148-3.163-3.149
					 M29.693,19.91c-0.366,0-0.73,0.07-1.07,0.206v-0.272c-0.004-1.743-1.416-3.155-3.158-3.158h-0.146
					c-0.51,0.004-1.011,0.134-1.459,0.377c-0.304-1.468-1.596-2.521-3.094-2.522c-0.537,0-1.066,0.127-1.546,0.37v-4.566h5.587
					c0.487,0,0.883-0.395,0.883-0.882c0,0,0,0,0-0.001v-8.58c0-0.486-0.395-0.882-0.882-0.882l0,0H6.569
					c-0.487,0-0.882,0.395-0.883,0.882v8.58c0,0.487,0.395,0.883,0.882,0.883c0,0,0,0,0.001,0h6.175v21.583L7.575,27.69
					c-2.151-1.799-5.317-1.667-7.311,0.305c-0.321,0.318-0.351,0.824-0.07,1.178l12.551,16.045v7.418
					c0,0.486,0.395,0.881,0.882,0.881l0,0c0.487,0,0.882-0.395,0.882-0.881l0,0v-7.721c-0.001-0.197-0.067-0.387-0.188-0.541
					L2.111,28.753c1.353-0.861,3.108-0.744,4.335,0.287l6.623,5.43c0.377,0.309,0.933,0.254,1.241-0.123
					c0.128-0.156,0.199-0.352,0.2-0.553V7.413c0.004-0.767,0.625-1.388,1.392-1.392h0.147c0.771,0,1.396,0.622,1.399,1.392v18.756
					c0.001,0.487,0.396,0.882,0.883,0.882c0.486,0,0.882-0.395,0.882-0.882l0,0v-8.525c0.078-0.789,0.761-1.378,1.553-1.339
					c0.767,0.004,1.388,0.625,1.392,1.392v8.469c0,0.487,0.396,0.882,0.883,0.882l0,0c0.486,0,0.882-0.395,0.882-0.882l0,0v-6.321
					c0.005-0.768,0.625-1.388,1.392-1.393h0.147c0.771,0,1.396,0.622,1.399,1.393v6.322c0,0.487,0.396,0.881,0.883,0.881l0,0
					c0.486,0,0.882-0.394,0.882-0.881l0,0v-3.233c-0.04-0.293,0.04-0.589,0.219-0.823s0.444-0.388,0.737-0.426
					c0.038-0.006,0.077-0.009,0.115-0.011c0.699,0,1.27,0.561,1.283,1.26v15.228c0.004,2.428-0.961,4.758-2.683,6.469
					c-0.174,0.174-0.269,0.41-0.261,0.654v6.76c0,0.486,0.395,0.883,0.882,0.883l0,0c0.487,0,0.882-0.396,0.882-0.883l0,0v-6.426
					c1.9-2.018,2.957-4.686,2.952-7.459V22.934c-0.012-1.673-1.371-3.023-3.044-3.023"/>
			</g>
			<g id="Group_32" transform="translate(32.075 3.529)">
				<path id="Path_24" fill="#ffffff" d="M9.705,0H0.882C0.395,0,0,0.394,0,0.881l0,0c0,0.487,0.395,0.882,0.882,0.882l0,0h8.821
					c0.488,0,0.883-0.395,0.883-0.882l0,0C10.586,0.395,10.192,0.001,9.705,0"/>
			</g>
			<g id="Group_33" transform="translate(31.574 8.585)">
				<path id="Path_25" fill="#ffffff" d="M1.486,0.237C1.315,0.077,1.087-0.008,0.853,0c-0.234,0.009-0.455,0.11-0.613,0.281
					c-0.314,0.339-0.314,0.861,0,1.2l7.862,7.882c0.392,0.29,0.944,0.207,1.233-0.185C9.337,9.177,9.339,9.175,9.34,9.173
					c0.231-0.314,0.228-0.745-0.011-1.056L1.486,0.237z"/>
			</g>
			<g id="Group_34" transform="translate(0 11.47)">
				<path id="Path_26" fill="#ffffff" d="M7.411,0.258c-0.345-0.345-0.903-0.345-1.247,0L0.283,6.14
					C0.111,6.299,0.01,6.52,0.002,6.754c-0.008,0.233,0.077,0.461,0.236,0.633c0.16,0.171,0.38,0.272,0.614,0.28
					c0.234,0.009,0.461-0.076,0.633-0.235C1.5,7.417,1.515,7.402,1.529,7.388l5.882-5.882C7.585,1.353,7.69,1.137,7.702,0.905
					c0.011-0.229-0.07-0.452-0.224-0.621c-0.015-0.021-0.042-0.03-0.066-0.022"/>
			</g>
		</g>
	</g>
</g>
</svg>
