<svg id="Layer_1" data-name="Layer 1" xmlns="http://www.w3.org/2000/svg" xmlns:xlink="http://www.w3.org/1999/xlink" width="59.6" height="59.6" viewBox="0 0 58.6 58.6">
  <defs>
    <clipPath id="clip-path" transform="translate(-1.2 -1.2)">
      <rect width="62" height="62" style="fill: none"/>
    </clipPath>
  </defs>
  <title>clock</title>
  <g id="Group_53" data-name="Group 53">
    <g style="clip-path: url(#clip-path)">
      <g id="Group_52" data-name="Group 52">
        <g id="Group_50" data-name="Group 50">
          <path id="Path_34" data-name="Path 34" d="M34.4,26.4l-4.8,4.8v-17A1.2,1.2,0,0,0,28.4,13a1.2,1.2,0,0,0-1.1,1.2h0v20h0v.2c.1,0,.1,0,.1.1h.1l.3.3h.1c0,.1,0,.1.1.1h.7a.1.1,0,0,1,.1-.1h.1A.1.1,0,0,0,29,35h.1c.1,0,.1-.1.2-.2l6.8-6.7a1.4,1.4,0,0,0,0-1.7,1.1,1.1,0,0,0-1.7,0h0" transform="translate(-1.2 -1.2)" style="fill: #fff"/>
        </g>
        <g id="Group_51" data-name="Group 51">
          <path id="Path_35" data-name="Path 35" d="M57.3,30A27.3,27.3,0,0,1,30,57.3h0A27.3,27.3,0,0,1,2.7,30h0A27.3,27.3,0,0,1,30,2.7h0A27.3,27.3,0,0,1,57.3,30Z" transform="translate(-1.2 -1.2)" style="fill: none;stroke: #fff;stroke-width: 3px"/>
        </g>
      </g>
    </g>
  </g>
</svg>
