<svg xmlns="http://www.w3.org/2000/svg" xmlns:xlink="http://www.w3.org/1999/xlink" width="60" height="60"
  viewBox="0 0 60 60">
  <defs>
    <style>
      .a,
      .d {
        fill: none;
      }

      .b {
        clip-path: url(#a);
      }

      .c {
        fill: #ffffff;
      }

      .d {
        stroke: #ffffff;
        stroke-width: 3px;
      }

    </style>
    <clipPath id="a">
      <path class="a" d="M0-75H60v60H0Z" transform="translate(0 75)" />
    </clipPath>
  </defs>
  <g transform="translate(-2 70)">
    <g class="b" transform="translate(2 -70)">
      <g transform="translate(27.106 12.12)">
        <path class="c"
          d="M-1.878-3.52-6.9,1.5V-16.353A1.247,1.247,0,0,0-8.145-17.6a1.246,1.246,0,0,0-1.246,1.246V4.509a1.266,1.266,0,0,0,.025.246c.007.035.021.067.03.1a1.292,1.292,0,0,0,.041.13,1.283,1.283,0,0,0,.062.118c.018.033.032.066.053.1a1.25,1.25,0,0,0,.346.346.591.591,0,0,0,.079.043,1.279,1.279,0,0,0,.135.072c.038.015.077.023.114.036s.077.026.118.034a1.306,1.306,0,0,0,.243.025A1.244,1.244,0,0,0-7.9,5.734c.04-.009.078-.022.118-.035s.076-.02.114-.035a1.322,1.322,0,0,0,.138-.073.805.805,0,0,0,.077-.042,1.144,1.144,0,0,0,.193-.158L-.114-1.756a1.248,1.248,0,0,0,0-1.763,1.246,1.246,0,0,0-1.764,0"
          transform="translate(9.391 17.599)" />
      </g>
      <g transform="translate(1.2 1.2)">
        <path class="d"
          d="M-14.4-7.2A28.8,28.8,0,0,1-43.2,21.6,28.8,28.8,0,0,1-72-7.2,28.8,28.8,0,0,1-43.2-36,28.8,28.8,0,0,1-14.4-7.2Z"
          transform="translate(72 36)" />
      </g>
    </g>
  </g>
</svg>
