<svg xmlns="http://www.w3.org/2000/svg" width="61.095" height="68.99" viewBox="0 0 61.095 68.99"><defs><style>.a{fill:#69b643;}</style></defs><g transform="translate(-161 168.63)"><g transform="translate(464.593 11.624)"><path class="a" d="M-253.321-183.782a1.957,1.957,0,0,1,1.971,1.971,1.957,1.957,0,0,1-1.971,1.972,1.957,1.957,0,0,1-1.971-1.972,1.956,1.956,0,0,1,1.971-1.971m0-1.972a3.958,3.958,0,0,0-3.943,3.943,3.958,3.958,0,0,0,3.943,3.943,3.958,3.958,0,0,0,3.943-3.943,3.959,3.959,0,0,0-3.943-3.943m-1.355-3.974a10.177,10.177,0,0,1,7.27,2.988,10.3,10.3,0,0,1-.092,14.57.957.957,0,0,0-.093.062,10.612,10.612,0,0,1-11.151,2.095.986.986,0,0,0-1.047.216l-16.419,16.418-3.265-1.078-.431-4.313,1.355-1.356h2.557a.986.986,0,0,0,.986-.986v-2.557l2.372-2.372h2.557a.986.986,0,0,0,.986-.986v-2.557l4.744-4.775a.986.986,0,0,0,.216-1.047,10.614,10.614,0,0,1,2.156-11.243,10.405,10.405,0,0,1,7.3-3.08m-18.359-28.155,11.428,11.428h-11.428Zm2.526,46.915-.277.277a.988.988,0,0,0-.277.709v1.971h-1.972a.987.987,0,0,0-.708.277l-2.957,2.957a.987.987,0,0,0-.277.709v1.971h-1.971a.985.985,0,0,0-.708.277l-.709.709h-18.3a2.929,2.929,0,0,1-2.957-2.957v-51.258a2.929,2.929,0,0,1,2.957-2.957h23.658v12.814a.986.986,0,0,0,.986.986h13.8v14.2a12.375,12.375,0,0,0-3.142,2.249,12.432,12.432,0,0,0-2.772,12.691l-2.433,2.4m-30.1-47.315a4.94,4.94,0,0,0-4.929,4.929v51.258a4.94,4.94,0,0,0,4.929,4.929h16.758a.867.867,0,0,0,0,.093l.524,5.391a.986.986,0,0,0,.678.863l4.436,1.479a.986.986,0,0,0,1.017-.246l16.48-16.48a12.4,12.4,0,0,0,12.661-2.742.989.989,0,0,0,.185-.246,12.249,12.249,0,0,0-.093-17.1,12.093,12.093,0,0,0-8.656-3.542,12.293,12.293,0,0,0-3.573.555v-14.355a.986.986,0,0,0-.277-.708l-13.8-13.8a.986.986,0,0,0-.708-.277h-25.629Z" transform="translate(0 40)"/></g></g></svg>