<?xml version="1.0" encoding="utf-8"?>
<!-- Generator: Adobe Illustrator 15.0.0, SVG Export Plug-In . SVG Version: 6.00 Build 0)  -->
<!DOCTYPE svg PUBLIC "-//W3C//DTD SVG 1.1//EN" "http://www.w3.org/Graphics/SVG/1.1/DTD/svg11.dtd">
<svg version="1.1" id="Layer_1" xmlns="http://www.w3.org/2000/svg" xmlns:xlink="http://www.w3.org/1999/xlink" x="0px" y="0px"
	 width="51.83px" height="58.527px" viewBox="0 0 51.83 58.527" enable-background="new 0 0 51.83 58.527" xml:space="preserve">
<g>
	<path fill="#69b643" d="M7.451,19.556H6.083v2.512h1.368c1.026,0,1.558-0.468,1.558-1.261C9.008,20.015,8.477,19.556,7.451,19.556z"/>
	<path fill="#69b643" d="M20.978,19.556h-1.369v2.503h1.369c1.026,0,1.557-0.459,1.557-1.252
		C22.535,20.015,22.004,19.556,20.978,19.556z"/>
	<path fill="#69b643" d="M29.972,21.716c0-1.305-0.909-2.16-2.314-2.16h-1.53v4.321h1.53C29.062,23.877,29.972,23.022,29.972,21.716z"
		/>
	<path fill="#69b643" d="M4.184,0.002h21.743c0.223-0.005,0.439,0.079,0.599,0.234l11.709,11.707c0.155,0.161,0.24,0.377,0.234,0.601
		v12.175c0.982-0.306,2.004-0.464,3.031-0.47c2.752-0.024,5.397,1.059,7.344,3.005c1.971,2.001,2.967,4.604,2.985,7.215V0H4.184
		L4.184,0.002z"/>
	<path fill="#69b643" d="M4.185,1.667c-0.016,0-0.032,0-0.048,0C2.765,1.68,1.663,2.804,1.676,4.176v43.485c0,0.016,0,0.031,0,0.047
		c0.014,1.372,1.137,2.474,2.509,2.461h15.523l0.6-0.601c0.161-0.155,0.376-0.239,0.6-0.234h1.672v-1.672
		c-0.005-0.224,0.08-0.439,0.235-0.601l2.509-2.509c0.161-0.155,0.376-0.24,0.6-0.235h1.673v-1.672
		c-0.006-0.223,0.079-0.439,0.234-0.6l0.234-0.235l1.649-1.677l2.065-2.038c-1.303-3.746-0.395-7.905,2.352-10.767
		c0.783-0.772,1.684-1.416,2.666-1.908V13.374H25.091c-0.461,0-0.836-0.375-0.836-0.836V1.667H4.185z M24.957,18.566h2.755
		c2.043,0,3.439,1.261,3.439,3.15c0,1.891-1.396,3.151-3.439,3.151h-2.755V18.566z M9.036,24.867l-1.288-1.846
		c-0.081,0.009-0.162,0.009-0.243,0.009H6.083v1.837h-1.17v-6.302h2.593c1.657,0,2.683,0.846,2.683,2.241
		c0,0.955-0.486,1.657-1.342,1.99l1.45,2.07H9.036z M14.498,23.931c0.45,0,0.892-0.09,1.296-0.324v-1.962h1.107v2.512
		c-0.657,0.531-1.575,0.801-2.467,0.801c-1.954,0-3.394-1.359-3.394-3.241c0-1.881,1.44-3.24,3.412-3.24
		c1.053,0,1.936,0.351,2.53,1.026l-0.738,0.72c-0.495-0.495-1.062-0.72-1.737-0.72c-1.342,0-2.287,0.909-2.287,2.214
		C12.221,22.994,13.166,23.931,14.498,23.931z M21.032,23.049h-1.422v1.818h-1.17v-6.302h2.593c1.657,0,2.683,0.846,2.683,2.241
		C23.714,22.194,22.688,23.049,21.032,23.049z"/>
	<path fill="#69b643" d="M48.923,41.754c-0.041,0.077-0.094,0.147-0.156,0.209c-2.859,2.731-7.009,3.63-10.742,2.326l-13.98,13.98
		c-0.224,0.229-0.559,0.311-0.863,0.209l-3.763-1.254c-0.322-0.105-0.549-0.394-0.575-0.731l-0.444-4.573
		c-0.001-0.026-0.001-0.053,0-0.079H4.183c-2.307-0.006-4.176-1.874-4.181-4.181V4.175C0.007,1.888,1.846,0.036,4.126,0H0v58.527
		h51.83V34.511C51.838,37.119,50.871,39.732,48.923,41.754z"/>
	<path fill="#69b643" d="M23.231,56.734L37.16,42.805c0.234-0.23,0.582-0.302,0.889-0.183c3.231,1.285,6.915,0.593,9.46-1.777
		c0.025-0.019,0.052-0.036,0.079-0.052c0.003-0.003,0.005-0.006,0.009-0.009c3.43-3.392,3.461-8.922,0.069-12.353
		c-1.634-1.637-3.854-2.55-6.167-2.535l-0.001-0.001c-2.329,0.021-4.555,0.959-6.194,2.613c-2.419,2.55-3.133,6.274-1.828,9.539
		c0.117,0.306,0.047,0.653-0.184,0.888l-4.025,4.051v2.169c0,0.462-0.374,0.837-0.836,0.837h-2.168l-2.012,2.012v2.17
		c0,0.462-0.375,0.836-0.836,0.836h-2.169l-1.15,1.15l0.366,3.658L23.231,56.734z M42.649,29.268
		c1.844,0.007,3.338,1.501,3.345,3.345c-0.007,1.845-1.501,3.338-3.345,3.346c-1.845-0.008-3.338-1.501-3.346-3.346
		C39.312,30.769,40.805,29.275,42.649,29.268z"/>
	<path fill="#69b643" d="M42.649,34.286c0.008,0,0.016,0,0.024,0c0.917-0.008,1.654-0.757,1.647-1.674c0-0.008,0-0.016,0-0.023
		c-0.007-0.917-0.756-1.655-1.672-1.648c-0.008,0-0.017,0-0.024,0c-0.917,0.007-1.655,0.756-1.647,1.672c0,0.009,0,0.018,0,0.025
		C40.983,33.555,41.732,34.292,42.649,34.286z"/>
	<polygon fill="#69b643" points="25.923,11.711 35.623,11.711 25.923,2.011 	"/>
</g>
</svg>
