<?xml version="1.0" encoding="utf-8"?>
<!-- Generator: Adobe Illustrator 15.0.0, SVG Export Plug-In . SVG Version: 6.00 Build 0)  -->
<!DOCTYPE svg PUBLIC "-//W3C//DTD SVG 1.1//EN" "http://www.w3.org/Graphics/SVG/1.1/DTD/svg11.dtd">
<svg version="1.1" id="Layer_1" xmlns="http://www.w3.org/2000/svg" xmlns:xlink="http://www.w3.org/1999/xlink" x="0px" y="0px"
	 width="53.83px" height="49.85px" viewBox="0 0 53.83 49.85" enable-background="new 0 0 53.83 49.85" xml:space="preserve">
<path d="M53.581,3.593l-14.986,16.78c-0.178,0.201-0.43,0.321-0.699,0.331h-0.027
	c-0.263,0.002-0.515-0.102-0.7-0.287l-8.093-8.094c-0.384-0.384-0.384-1.006,0-1.39v-0.001c0.385-0.384,1.008-0.383,1.391,0.001
	l7.357,7.356L52.112,2.283c0.363-0.404,0.984-0.439,1.39-0.077V2.204c0.001,0.001,0.001,0.001,0.001,0.002
	C53.907,2.568,53.942,3.189,53.581,3.593z M26.686,36.521c-0.451,0.451-1.111,0.693-1.914,0.693c-1.485,0-2.651-0.946-2.651-2.398
	c0-1.573,1.287-2.563,2.915-2.563c2.135,0,3.444,1.331,3.444,3.817c0,2.662-1.595,4.147-3.928,4.147
	c-0.814,0-1.595-0.187-2.134-0.528l0.66-1.309c0.418,0.286,0.913,0.385,1.441,0.385C25.795,38.765,26.631,38.006,26.686,36.521z
	 M26.488,34.728c0-0.66-0.495-1.145-1.342-1.145c-0.76,0-1.288,0.44-1.288,1.145s0.517,1.155,1.309,1.155
	C25.949,35.883,26.488,35.399,26.488,34.728z M37.79,28.043c-0.543,0-0.984,0.44-0.984,0.983v18.854H1.965V1.967h34.841v6.67
	c0,0.543,0.439,0.983,0.982,0.983c0,0,0,0,0.001,0c0.542,0.002,0.983-0.438,0.983-0.979c0-0.001,0-0.001,0-0.002V0.984
	C38.772,0.441,38.333,0,37.789,0H0.983C0.441,0,0.003,0.438,0,0.979v47.891c0.003,0.542,0.441,0.979,0.983,0.979h36.806
	c0.543,0.001,0.983-0.439,0.983-0.982c0,0,0-0.001,0-0.002V29.027C38.772,28.484,38.333,28.043,37.79,28.043z M11.758,24.195
	c0,1.909-1.413,3.151-3.475,3.151H5.42v-6.302h2.863C10.345,21.044,11.758,22.286,11.758,24.195z M10.282,24.195
	c0-1.206-0.819-1.953-2.071-1.953H6.878v3.907h1.333C9.462,26.149,10.282,25.402,10.282,24.195z M12.854,21.044v6.302h4.619v-1.188
	h-3.16v-5.113H12.854z M5.479,38.995v1.155h5.82v-1.452H7.987l1.771-1.672c1.078-1.002,1.287-1.684,1.287-2.432
	c0-1.397-1.144-2.277-2.86-2.277c-1.386,0-2.464,0.561-3.058,1.43l1.298,0.837c0.374-0.518,0.935-0.771,1.595-0.771
	c0.814,0,1.232,0.353,1.232,0.957c0,0.374-0.121,0.771-0.803,1.419L5.479,38.995z M28.479,25.519c0,1.188-1.062,1.936-2.665,1.936
	c-1.594,0-2.647-0.748-2.647-1.936c0-0.676,0.351-1.18,0.955-1.485c-0.468-0.289-0.729-0.729-0.729-1.297
	c0-1.107,0.99-1.801,2.422-1.801c1.449,0,2.439,0.693,2.439,1.801c0,0.567-0.271,1.008-0.737,1.297
	C28.128,24.339,28.479,24.843,28.479,25.519z M24.842,22.8c0,0.477,0.378,0.773,0.972,0.773c0.603,0,0.99-0.297,0.99-0.773
	c0-0.495-0.396-0.793-0.99-0.793C25.229,22.007,24.842,22.305,24.842,22.8z M27.003,25.473c0-0.558-0.459-0.899-1.188-0.899
	c-0.72,0-1.17,0.342-1.17,0.899c0,0.559,0.45,0.91,1.17,0.91C26.543,26.383,27.003,26.031,27.003,25.473z M11.571,36.3
	c0-2.541,1.408-3.982,3.3-3.982c1.903,0,3.3,1.441,3.3,3.982s-1.397,3.982-3.3,3.982C12.979,40.282,11.571,38.841,11.571,36.3z
	 M13.375,36.3c0,1.749,0.616,2.476,1.496,2.476c0.891,0,1.507-0.727,1.507-2.476s-0.616-2.476-1.507-2.476
	C13.992,33.824,13.375,34.551,13.375,36.3z M22.602,26.157h-2.71l1.45-1.368c0.882-0.819,1.053-1.378,1.053-1.989
	c0-1.144-0.937-1.864-2.341-1.864c-1.134,0-2.017,0.459-2.503,1.171l1.062,0.684c0.306-0.423,0.765-0.63,1.305-0.63
	c0.667,0,1.009,0.288,1.009,0.783c0,0.306-0.099,0.63-0.657,1.161l-2.431,2.296v0.945h4.763V26.157z M21.494,40.151v-7.701h-3.322
	v1.431h1.54v6.271H21.494z"/>
</svg>
