<?xml version="1.0" encoding="utf-8"?>
<!-- Generator: Adobe Illustrator 15.0.0, SVG Export Plug-In . SVG Version: 6.00 Build 0)  -->
<!DOCTYPE svg PUBLIC "-//W3C//DTD SVG 1.1//EN" "http://www.w3.org/Graphics/SVG/1.1/DTD/svg11.dtd">
<svg version="1.1" id="Layer_1" xmlns="http://www.w3.org/2000/svg" xmlns:xlink="http://www.w3.org/1999/xlink" x="0px" y="0px"
	 width="51.543px" height="45.736px" viewBox="0 0 51.543 45.736" enable-background="new 0 0 51.543 45.736" xml:space="preserve">
<path fill="#69B643" d="M1.184,6.685H8.89c0.559,2.519,2.791,4.312,5.371,4.315c2.581-0.003,4.813-1.797,5.373-4.315h30.724
	c0.655,0,1.186-0.53,1.187-1.185c0,0,0-0.001,0-0.002c0.001-0.654-0.529-1.186-1.185-1.186c0,0,0,0-0.002,0H19.631
	c-0.559-2.519-2.791-4.312-5.371-4.316c-2.58,0.005-4.811,1.798-5.371,4.316H1.183C0.529,4.314,0,4.844,0,5.499l0.001,0.002
	C0.001,6.154,0.531,6.683,1.184,6.685z M14.263,2.371c1.728,0.002,3.128,1.402,3.13,3.13c-0.001,1.729-1.402,3.129-3.13,3.13
	c-1.728-0.001-3.128-1.401-3.13-3.13C11.135,3.773,12.535,2.373,14.263,2.371z M50.359,21.68h-6.266
	c-0.559-2.52-2.791-4.312-5.371-4.316c-2.58,0.005-4.811,1.798-5.371,4.316H1.185c-0.653,0-1.183,0.529-1.183,1.183
	c0,0.001,0,0.002,0,0.003L0,22.868c0,0.654,0.532,1.185,1.186,1.184h32.167c0.559,2.52,2.791,4.312,5.371,4.316
	c2.579-0.005,4.811-1.798,5.371-4.316h6.264c0.654,0.001,1.186-0.529,1.186-1.184c0-0.001,0-0.001,0-0.002
	C51.545,22.211,51.014,21.68,50.359,21.68z M38.721,25.998c-1.728-0.002-3.128-1.402-3.13-3.13c0.002-1.728,1.402-3.128,3.13-3.13
	c1.729,0.002,3.129,1.402,3.131,3.13C41.85,24.595,40.449,25.996,38.721,25.998z M50.361,39.049c-0.001,0-0.002,0-0.002,0H28.266
	c-0.559-2.519-2.791-4.312-5.371-4.315c-2.58,0.004-4.812,1.797-5.371,4.315H1.185c-0.653,0-1.183,0.53-1.183,1.184
	c0,0.001,0,0.002,0,0.003h-0.006c0,0.654,0.529,1.186,1.184,1.186c0,0,0.001,0,0.002,0h16.34c0.559,2.52,2.791,4.312,5.371,4.316
	c2.58-0.005,4.811-1.798,5.371-4.316h22.096c0.654,0.001,1.186-0.529,1.186-1.184c0-0.001,0-0.001,0-0.002
	C51.545,39.581,51.016,39.05,50.361,39.049z M22.896,43.365c-1.728-0.002-3.128-1.402-3.13-3.13c0-1.729,1.401-3.13,3.13-3.13
	c1.728,0.001,3.128,1.401,3.13,3.13C26.024,41.963,24.624,43.363,22.896,43.365z"/>
</svg>
