<svg id="Group_592" data-name="Group 592" xmlns="http://www.w3.org/2000/svg" xmlns:xlink="http://www.w3.org/1999/xlink" width="67.248" height="67.248" viewBox="0 0 67.248 67.248">
  <defs>
    <clipPath id="clip-path">
      <path id="Path_678" data-name="Path 678" d="M0-621.043H67.248v67.248H0Z" transform="translate(0 621.043)" fill="none"/>
    </clipPath>
  </defs>
  <g id="Group_591" data-name="Group 591" transform="translate(0 0)" clip-path="url(#clip-path)">
    <g id="Group_554" data-name="Group 554" transform="translate(2.728 2.68)">
      <path id="Path_641" data-name="Path 641" d="M-508.862-254.431a30.9,30.9,0,0,1-30.9,30.9,30.9,30.9,0,0,1-30.9-30.9,30.9,30.9,0,0,1,30.9-30.9,30.9,30.9,0,0,1,30.9,30.9" transform="translate(570.654 285.327)" fill="#fff"/>
    </g>
    <g id="Group_555" data-name="Group 555" transform="translate(2.289 2.292)">
      <path id="Path_642" data-name="Path 642" d="M-397.21-390a8.988,8.988,0,0,0-.727-2.212l-2.005-4.32c-.79-1.711-1.485-3.2-1.614-3.5l-.049-.129-.086-.17a2.686,2.686,0,0,0-2.335-1.358,2.781,2.781,0,0,0-1.139.251l-2.476,1.161-2.512-.217-.129-.008h-.08a2.664,2.664,0,0,0-1.139.258,2.723,2.723,0,0,0-1.04.855l-1.519,2.1-2.38,1.115a2.692,2.692,0,0,0-1.388,3.366l.034.081,3.743,8.03a9.213,9.213,0,0,0,1.187,1.93,23.3,23.3,0,0,1-22.248-13.205,23.291,23.291,0,0,1,10.948-31.053,23.28,23.28,0,0,1,31.052,10.954A23.282,23.282,0,0,1-397.21-390m11.363-29.553a31.339,31.339,0,0,0-41.787-14.73A31.331,31.331,0,0,0-442.368-392.5a31.329,31.329,0,0,0,41.782,14.739,31.338,31.338,0,0,0,14.739-41.79" transform="translate(445.444 437.356)" fill="#71be44"/>
    </g>
    <g id="Group_556" data-name="Group 556" transform="translate(0 0)">
      <path id="Path_643" data-name="Path 643" d="M-160.53-33.738a32.774,32.774,0,0,0-15.4,43.662,32.77,32.77,0,0,0,43.659,15.392,32.773,32.773,0,0,0,15.395-43.658,32.772,32.772,0,0,0-43.658-15.4m28.649,59.858a33.666,33.666,0,0,1-44.85-15.813,33.663,33.663,0,0,1,15.815-44.849A33.66,33.66,0,0,1-116.07-18.727,33.661,33.661,0,0,1-131.881,26.12" transform="translate(180.024 37.834)" fill="#00524a"/>
    </g>
    <g id="Group_557" data-name="Group 557" transform="translate(14.166 23.385)">
      <path id="Path_644" data-name="Path 644" d="M-53.321-39.989l-1.134-2.367a1.907,1.907,0,0,0-1.019-1.031,1.61,1.61,0,0,0-1.323.078,5.656,5.656,0,0,0-1.283.93l2.58,5.39,1.406-.673a1.533,1.533,0,0,0,.773-2.327m1.408-.517a2.778,2.778,0,0,1,.149,2.3,3.291,3.291,0,0,1-1.764,1.731l-2.741,1.311L-59.8-42.535a9.34,9.34,0,0,1,2.433-1.957,3.236,3.236,0,0,1,2.412-.21,2.812,2.812,0,0,1,1.776,1.56Z" transform="translate(59.796 44.845)" fill="#00524a"/>
    </g>
    <g id="Group_558" data-name="Group 558" transform="translate(20.643 21.292)">
      <path id="Path_645" data-name="Path 645" d="M-67.023-41.251l.461,1.233-4.815,2.3-3.785-7.907,1.335-.639,3.219,6.724Z" transform="translate(75.162 46.26)" fill="#00524a"/>
    </g>
    <g id="Group_559" data-name="Group 559" transform="translate(26.823 17.531)">
      <path id="Path_646" data-name="Path 646" d="M-66.21-48.251l.531,1.2-4.862,2.327-.538-.793a3.08,3.08,0,0,1-.039-2.429q.53-1.088,1.06-2.178a2.189,2.189,0,0,0,.235-1.854,1.326,1.326,0,0,0-.691-.692,1.272,1.272,0,0,0-1.094.062,5.582,5.582,0,0,0-1.633,1.4l-1.009-.814a6.179,6.179,0,0,1,2.082-1.759,2.849,2.849,0,0,1,2.147-.208,2.484,2.484,0,0,1,1.533,1.369,2.764,2.764,0,0,1-.063,2.247q-.541,1.065-1.088,2.148a2.045,2.045,0,0,0-.273,1.744Z" transform="translate(74.25 54.11)" fill="#00524a"/>
    </g>
    <g id="Group_560" data-name="Group 560" transform="translate(33.455 14.589)">
      <path id="Path_647" data-name="Path 647" d="M-47.638-43.722a1.257,1.257,0,0,0-.883-.685,1.622,1.622,0,0,0-1.134.082,1.585,1.585,0,0,0-.77.8,1.283,1.283,0,0,0-.013,1.145,1.222,1.222,0,0,0,.819.69,1.648,1.648,0,0,0,1.158-.138,1.687,1.687,0,0,0,.848-.817,1.218,1.218,0,0,0-.026-1.075m-1.877-3.349a.99.99,0,0,0-.687-.578,1.452,1.452,0,0,0-.978.137,1.419,1.419,0,0,0-.714.673,1,1,0,0,0,.025.9,1.024,1.024,0,0,0,.774.594,1.391,1.391,0,0,0,.914-.107,1.373,1.373,0,0,0,.644-.639,1.047,1.047,0,0,0,.023-.975m3.213,2.71a2.44,2.44,0,0,1,0,2.22,3.262,3.262,0,0,1-1.566,1.512,3.256,3.256,0,0,1-2.159.271,2.418,2.418,0,0,1-1.754-1.379,2.242,2.242,0,0,1,.338-2.451,1.958,1.958,0,0,1-1.746-1.121,2.219,2.219,0,0,1,.035-2.034,2.908,2.908,0,0,1,1.4-1.386,2.924,2.924,0,0,1,1.966-.223A2.231,2.231,0,0,1-48.2-47.7a1.917,1.917,0,0,1-.216,2.046A2.268,2.268,0,0,1-46.3-44.362" transform="translate(53.423 49.032)" fill="#00524a"/>
    </g>
    <g id="Group_561" data-name="Group 561" transform="translate(20.511 32.929)">
      <path id="Path_648" data-name="Path 648" d="M-7.626,0l2.267,10.362-.925.443L-8.552.443Z" transform="translate(8.552)" fill="#00524a"/>
    </g>
    <g id="Group_562" data-name="Group 562" transform="translate(22.235 31.637)">
      <path id="Path_649" data-name="Path 649" d="M-66.21-48.249l.531,1.2-4.861,2.327-.538-.794a3.074,3.074,0,0,1-.04-2.428q.53-1.087,1.06-2.177a2.2,2.2,0,0,0,.236-1.856,1.337,1.337,0,0,0-.692-.691,1.273,1.273,0,0,0-1.094.062,5.581,5.581,0,0,0-1.633,1.4l-1.009-.814a6.214,6.214,0,0,1,2.082-1.759,2.853,2.853,0,0,1,2.147-.208,2.48,2.48,0,0,1,1.533,1.368,2.762,2.762,0,0,1-.063,2.248l-1.088,2.148a2.045,2.045,0,0,0-.273,1.744Z" transform="translate(74.25 54.108)" fill="#00524a"/>
    </g>
    <g id="Group_563" data-name="Group 563" transform="translate(28.733 28.655)">
      <path id="Path_650" data-name="Path 650" d="M-47.21-38.861l-1-2.085a2.214,2.214,0,0,0-1.1-1.175,1.5,1.5,0,0,0-1.278.066,1.507,1.507,0,0,0-.853.955,2.212,2.212,0,0,0,.228,1.59l1,2.085a2.2,2.2,0,0,0,1.095,1.175,1.506,1.506,0,0,0,1.279-.065,1.545,1.545,0,0,0,.862-.981,2.2,2.2,0,0,0-.237-1.564m1.324-.633a3.338,3.338,0,0,1,.244,2.619,2.981,2.981,0,0,1-1.627,1.744,2.968,2.968,0,0,1-2.368.168,3.3,3.3,0,0,1-1.9-1.828l-1-2.085a3.332,3.332,0,0,1-.245-2.618,2.98,2.98,0,0,1,1.627-1.743,2.964,2.964,0,0,1,2.368-.17,3.308,3.308,0,0,1,1.9,1.828Z" transform="translate(52.943 43.58)" fill="#00524a"/>
    </g>
    <g id="Group_564" data-name="Group 564" transform="translate(33.676 26.303)">
      <path id="Path_651" data-name="Path 651" d="M-53.549-65.119l-1.324.633-3.219-6.725-1.183.567-.777-1.082,2.717-1.3Z" transform="translate(60.052 73.027)" fill="#00524a"/>
    </g>
    <g id="Group_565" data-name="Group 565" transform="translate(38.306 24.107)">
      <path id="Path_652" data-name="Path 652" d="M-41.53-30.975l-.672-1.406a1.774,1.774,0,0,0-.845-.891,1.4,1.4,0,0,0-1.215.049,1.374,1.374,0,0,0-.807.932,1.948,1.948,0,0,0,.187,1.322,1.778,1.778,0,0,0,.9.943,1.451,1.451,0,0,0,1.208-.081,4.434,4.434,0,0,0,1.239-.869m1.852.439a3.187,3.187,0,0,1,.19,2.473,3.257,3.257,0,0,1-1.788,1.921,9,9,0,0,1-2.131.6l-.239-1.283a9.861,9.861,0,0,0,1.8-.5,1.749,1.749,0,0,0,.983-1.1,2.065,2.065,0,0,0-.154-1.467,3.941,3.941,0,0,1-1.218.915,3.022,3.022,0,0,1-2.212.252,2.791,2.791,0,0,1-1.762-1.6,3.016,3.016,0,0,1-.191-2.444A2.906,2.906,0,0,1-44.839-34.4a2.985,2.985,0,0,1,2.234-.206,2.855,2.855,0,0,1,1.744,1.6Z" transform="translate(46.573 34.736)" fill="#00524a"/>
    </g>
    <g id="Group_566" data-name="Group 566" transform="translate(6.346 42.985)">
      <path id="Path_653" data-name="Path 653" d="M-27.93,0a4.74,4.74,0,0,1,.7,1.073,1.522,1.522,0,0,1,.084,1.158,1.45,1.45,0,0,1-.826.867l-.985.449a1.468,1.468,0,0,1-1.2.059,1.533,1.533,0,0,1-.815-.825,4.737,4.737,0,0,1-.346-1.232l.587-.118a4.12,4.12,0,0,0,.3,1.1.822.822,0,0,0,.459.462,1.029,1.029,0,0,0,.79-.086l.866-.395a1.018,1.018,0,0,0,.571-.535.813.813,0,0,0-.037-.656,4.226,4.226,0,0,0-.629-.95Z" transform="translate(31.322)" fill="#f8f8fa"/>
    </g>
    <g id="Group_567" data-name="Group 567" transform="translate(5.37 40.173)">
      <path id="Path_654" data-name="Path 654" d="M-18.4-6.177l-.89.279a1.053,1.053,0,0,0-.645.467.8.8,0,0,0-.042.656.8.8,0,0,0,.411.512,1.046,1.046,0,0,0,.8.011l.89-.28A1.04,1.04,0,0,0-17.233-5a.8.8,0,0,0,.036-.654.8.8,0,0,0-.4-.514,1.039,1.039,0,0,0-.8-.01m-.142-.666a1.458,1.458,0,0,1,1.2.1,1.513,1.513,0,0,1,.711.909,1.521,1.521,0,0,1-.059,1.16,1.457,1.457,0,0,1-.929.767l-1.015.321a1.472,1.472,0,0,1-1.2-.094,1.525,1.525,0,0,1-.718-.915,1.512,1.512,0,0,1,.065-1.155,1.464,1.464,0,0,1,.928-.774Z" transform="translate(20.632 6.927)" fill="#f8f8fa"/>
    </g>
    <g id="Group_568" data-name="Group 568" transform="translate(4.322 36.567)">
      <path id="Path_655" data-name="Path 655" d="M-31.713,0l.2.532-2.313,1.989,2.579-.441.114.668-3.874.664-.182-.566L-32.935.9l-2.515.431-.114-.667Z" transform="translate(35.564)" fill="#f8f8fa"/>
    </g>
    <g id="Group_569" data-name="Group 569" transform="translate(4.11 33.792)">
      <path id="Path_656" data-name="Path 656" d="M-4.935,0l.081,1.622,1.163-.059L-3.76.15l.57-.028.07,1.413,1.674-.083.034.677-4.009.2-.113-2.3Z" transform="translate(5.534)" fill="#f8f8fa"/>
    </g>
    <g id="Group_570" data-name="Group 570" transform="translate(4.162 30.095)">
      <path id="Path_657" data-name="Path 657" d="M-21.313-6.205l-.931-.068a1.057,1.057,0,0,0-.772.194.809.809,0,0,0-.282.594.808.808,0,0,0,.193.628,1.056,1.056,0,0,0,.736.3l.931.067a1.025,1.025,0,0,0,.771-.2.8.8,0,0,0,.275-.593.8.8,0,0,0-.187-.628,1.041,1.041,0,0,0-.735-.3m.114-.671a1.461,1.461,0,0,1,1.082.537,1.516,1.516,0,0,1,.325,1.109,1.521,1.521,0,0,1-.482,1.057,1.454,1.454,0,0,1-1.148.369l-1.062-.075a1.477,1.477,0,0,1-1.081-.532A1.518,1.518,0,0,1-23.9-5.529a1.512,1.512,0,0,1,.487-1.049,1.462,1.462,0,0,1,1.148-.375Z" transform="translate(23.902 6.959)" fill="#f8f8fa"/>
    </g>
    <g id="Group_571" data-name="Group 571" transform="translate(4.488 26.579)">
      <path id="Path_658" data-name="Path 658" d="M-12.746-5.683a.587.587,0,0,0-.441.065.567.567,0,0,0-.24.385l-.142.687,1.148.235L-12.28-5a.56.56,0,0,0-.072-.448.614.614,0,0,0-.395-.237m2.931-.172-.145.7-1.783.434-.107.524,1.624.335-.137.665L-14.294-4l.279-1.35a1.253,1.253,0,0,1,.514-.815,1.112,1.112,0,0,1,.892-.177,1.153,1.153,0,0,1,.617.336,1.141,1.141,0,0,1,.306.637Z" transform="translate(14.294 6.373)" fill="#f8f8fa"/>
    </g>
    <g id="Group_572" data-name="Group 572" transform="translate(5.362 22.008)">
      <path id="Path_659" data-name="Path 659" d="M-41.827-7.076l-.229.631-2.289-.51-.857-.218.758.491L-42.992-5.6l-.272.749-1.811-.1-.9-.111.8.379,2.085,1.07-.229.625-3.589-1.871.291-.8,2.021.116.891.109-.752-.489L-46.078-7.13l.292-.8Z" transform="translate(46.906 7.935)" fill="#f8f8fa"/>
    </g>
    <g id="Group_573" data-name="Group 573" transform="translate(7.16 20.031)">
      <path id="Path_660" data-name="Path 660" d="M-32.026-14.887l-.306.605-3.583-1.808.305-.605Z" transform="translate(35.915 16.695)" fill="#f8f8fa"/>
    </g>
    <g id="Group_574" data-name="Group 574" transform="translate(8.211 17.098)">
      <path id="Path_661" data-name="Path 661" d="M-25.78-12.183l-1.015-.642a.879.879,0,0,0-.647-.152.746.746,0,0,0-.494.352,2.675,2.675,0,0,0-.27.674l2.313,1.461.38-.6a.7.7,0,0,0-.267-1.089m.42-.544a1.269,1.269,0,0,1,.618.854,1.511,1.511,0,0,1-.263,1.1L-25.749-9.6l-3.162-2a4.268,4.268,0,0,1,.467-1.352,1.485,1.485,0,0,1,.884-.669,1.287,1.287,0,0,1,1.069.172Z" transform="translate(28.911 13.663)" fill="#f8f8fa"/>
    </g>
    <g id="Group_575" data-name="Group 575" transform="translate(10.682 14.424)">
      <path id="Path_662" data-name="Path 662" d="M-20.118-11.113l-1.769-.68.993,1.615Zm2.118.123-.441.529-1.147-.442-1,1.207.645,1.046-.438.526-2.177-3.659.566-.68Z" transform="translate(22.561 12.462)" fill="#f8f8fa"/>
    </g>
    <g id="Group_576" data-name="Group 576" transform="translate(12.908 11.393)">
      <path id="Path_663" data-name="Path 663" d="M-26.153-15.226l-.811-.887a.873.873,0,0,0-.584-.317.738.738,0,0,0-.568.211,2.565,2.565,0,0,0-.439.578l1.845,2.018.526-.481a.7.7,0,0,0,.031-1.122m.549-.413a1.275,1.275,0,0,1,.37.988,1.511,1.511,0,0,1-.544.992l-1.028.939-2.523-2.763a4.252,4.252,0,0,1,.808-1.18,1.479,1.479,0,0,1,1.028-.412,1.293,1.293,0,0,1,.987.448Z" transform="translate(29.329 17.075)" fill="#f8f8fa"/>
    </g>
    <g id="Group_577" data-name="Group 577" transform="translate(16.038 8.879)">
      <path id="Path_664" data-name="Path 664" d="M-31.623-26.991l-.923.651a1.312,1.312,0,0,1-.967.266,1.117,1.117,0,0,1-.782-.485.974.974,0,0,1-.053-1.033.925.925,0,0,1-.9-.368,1.057,1.057,0,0,1-.19-.859,1.342,1.342,0,0,1,.591-.808l.908-.641.346.489-.908.643q-.5.351-.2.784a.516.516,0,0,0,.352.224.629.629,0,0,0,.465-.139l.85-.6.307.466-.854.6a.616.616,0,0,0-.283.4.59.59,0,0,0,.116.442.565.565,0,0,0,.384.246.622.622,0,0,0,.465-.126l.923-.652Z" transform="translate(35.462 30.268)" fill="#f8f8fa"/>
    </g>
    <g id="Group_578" data-name="Group 578" transform="translate(20.451 6.405)">
      <path id="Path_665" data-name="Path 665" d="M-30.571-27.9a4.676,4.676,0,0,1-1.073.7,1.525,1.525,0,0,1-1.157.087,1.454,1.454,0,0,1-.868-.825l-.451-.984a1.468,1.468,0,0,1-.062-1.2,1.529,1.529,0,0,1,.823-.815,4.664,4.664,0,0,1,1.232-.349l.119.586a4.219,4.219,0,0,0-1.1.306.833.833,0,0,0-.464.462,1.045,1.045,0,0,0,.088.79l.4.864a1.02,1.02,0,0,0,.536.571.814.814,0,0,0,.656-.039,4.208,4.208,0,0,0,.948-.631Z" transform="translate(34.283 31.283)" fill="#f8f8fa"/>
    </g>
    <g id="Group_579" data-name="Group 579" transform="translate(23.514 5.422)">
      <path id="Path_666" data-name="Path 666" d="M-22.075-18.341l-.287-.889a1.051,1.051,0,0,0-.47-.641.8.8,0,0,0-.656-.039A.813.813,0,0,0-24-19.5a1.054,1.054,0,0,0-.006.8l.288.888a1.041,1.041,0,0,0,.469.643.811.811,0,0,0,.655.032.8.8,0,0,0,.511-.409,1.033,1.033,0,0,0,.006-.8m.666-.146a1.462,1.462,0,0,1-.092,1.2,1.514,1.514,0,0,1-.906.717,1.515,1.515,0,0,1-1.159-.051,1.457,1.457,0,0,1-.774-.924l-.327-1.014a1.47,1.47,0,0,1,.087-1.2,1.527,1.527,0,0,1,.908-.725,1.519,1.519,0,0,1,1.156.059,1.46,1.46,0,0,1,.78.924Z" transform="translate(24.755 20.568)" fill="#f8f8fa"/>
    </g>
    <g id="Group_580" data-name="Group 580" transform="translate(27.403 4.242)">
      <path id="Path_667" data-name="Path 667" d="M-36.274-31.941l-.664.106-.664-2.25-.225-.854-.062.9-.246,1.8-.786.125-.789-1.633-.338-.839.057.883.076,2.342-.657.1-.107-4.048.84-.134.88,1.824.336.832.063-.9.272-2.006.846-.135Z" transform="translate(40.679 35.82)" fill="#f8f8fa"/>
    </g>
    <g id="Group_581" data-name="Group 581" transform="translate(33.865 4.139)">
      <path id="Path_668" data-name="Path 668" d="M-18.568-22.279l.076-1.2a.878.878,0,0,0-.177-.64.743.743,0,0,0-.547-.264,2.562,2.562,0,0,0-.72.086l-.174,2.729.712.045a.7.7,0,0,0,.828-.758m.678.109a1.273,1.273,0,0,1-.452.951,1.514,1.514,0,0,1-1.091.3l-1.389-.088.236-3.733a4.254,4.254,0,0,1,1.409-.238,1.472,1.472,0,0,1,1.011.454A1.293,1.293,0,0,1-17.8-23.5Z" transform="translate(20.823 24.984)" fill="#f8f8fa"/>
    </g>
    <g id="Group_582" data-name="Group 582" transform="translate(37.265 4.442)">
      <path id="Path_669" data-name="Path 669" d="M-21.125-31.468l-.164.58-2.4-.457.75-3.943.667.127-.639,3.353Z" transform="translate(23.69 35.289)" fill="#f8f8fa"/>
    </g>
    <g id="Group_583" data-name="Group 583" transform="translate(40.19 5.345)">
      <path id="Path_670" data-name="Path 670" d="M-21.008-31.44l-.2.566-2.35-.75.07-.434a1.409,1.409,0,0,1,.749-.822l1.037-.393a1.006,1.006,0,0,0,.661-.544.61.61,0,0,0-.013-.447.584.584,0,0,0-.383-.324,2.561,2.561,0,0,0-.983-.045l-.081-.589a2.836,2.836,0,0,1,1.245.068,1.306,1.306,0,0,1,.781.6,1.136,1.136,0,0,1,.081.938,1.262,1.262,0,0,1-.726.729l-1.036.375c-.368.136-.582.3-.639.5Z" transform="translate(23.559 35.257)" fill="#f8f8fa"/>
    </g>
    <g id="Group_584" data-name="Group 584" transform="translate(43.501 6.715)">
      <path id="Path_671" data-name="Path 671" d="M-21.885-11.576a.456.456,0,0,0,.005-.411.669.669,0,0,0-.334-.305.655.655,0,0,0-.446-.057.461.461,0,0,0-.309.27.47.47,0,0,0,.016.447.65.65,0,0,0,.3.291.628.628,0,0,0,.414.04.471.471,0,0,0,.35-.275m-.636,1.638a.572.572,0,0,0-.014-.511.751.751,0,0,0-.36-.377.723.723,0,0,0-.506-.038.583.583,0,0,0-.408.328.559.559,0,0,0-.005.49.758.758,0,0,0,.386.37.774.774,0,0,0,.535.062.559.559,0,0,0,.371-.324m.616.286a1.122,1.122,0,0,1-.784.646,1.493,1.493,0,0,1-.991-.113A1.494,1.494,0,0,1-24.4-9.8a1.105,1.105,0,0,1-.025-1.02,1.025,1.025,0,0,1,.964-.6.9.9,0,0,1-.112-.944,1.015,1.015,0,0,1,.728-.58,1.333,1.333,0,0,1,.9.088,1.339,1.339,0,0,1,.652.63,1.024,1.024,0,0,1,.023.928.881.881,0,0,1-.786.52,1.037,1.037,0,0,1,.16,1.123" transform="translate(24.542 12.982)" fill="#f8f8fa"/>
    </g>
    <g id="Group_585" data-name="Group 585" transform="translate(46.013 8.455)">
      <path id="Path_672" data-name="Path 672" d="M-31.409-2.014-34.822,1.44l-.4-.245,3.412-3.454Z" transform="translate(35.223 2.259)" fill="#f8f8fa"/>
    </g>
    <g id="Group_586" data-name="Group 586" transform="translate(48.355 9.781)">
      <path id="Path_673" data-name="Path 673" d="M-19.169-33.474l-.384.461L-21.5-34.532l.215-.381a1.407,1.407,0,0,1,.989-.512l1.108-.009a1,1,0,0,0,.809-.282.6.6,0,0,0,.143-.423.584.584,0,0,0-.249-.437,2.563,2.563,0,0,0-.906-.383l.127-.58a2.85,2.85,0,0,1,1.146.5,1.3,1.3,0,0,1,.522.838,1.141,1.141,0,0,1-.249.908,1.264,1.264,0,0,1-.934.432l-1.1-.008a.934.934,0,0,0-.771.243Z" transform="translate(21.497 37.539)" fill="#f8f8fa"/>
    </g>
    <g id="Group_587" data-name="Group 587" transform="translate(51.289 12.403)">
      <path id="Path_674" data-name="Path 674" d="M-16.869-23.088l.753-.744a1.03,1.03,0,0,0,.344-.651.689.689,0,0,0-.221-.544.694.694,0,0,0-.542-.225,1.011,1.011,0,0,0-.654.337l-.751.745a1.008,1.008,0,0,0-.344.649.689.689,0,0,0,.22.543.7.7,0,0,0,.554.226,1,1,0,0,0,.64-.337m.474.477a1.527,1.527,0,0,1-1.1.5,1.358,1.358,0,0,1-1-.443,1.353,1.353,0,0,1-.428-1,1.517,1.517,0,0,1,.5-1.1l.752-.744a1.532,1.532,0,0,1,1.1-.5,1.371,1.371,0,0,1,1,.443,1.357,1.357,0,0,1,.429,1,1.507,1.507,0,0,1-.506,1.094Z" transform="translate(18.917 25.892)" fill="#f8f8fa"/>
    </g>
    <g id="Group_588" data-name="Group 588" transform="translate(53.791 15.031)">
      <path id="Path_675" data-name="Path 675" d="M-3.36-29.09l-.408-.533L-1.057-31.7l-.364-.477.411-.449.839,1.095Z" transform="translate(3.768 32.622)" fill="#f8f8fa"/>
    </g>
    <g id="Group_589" data-name="Group 589" transform="translate(55.194 18.093)">
      <path id="Path_676" data-name="Path 676" d="M-20.99-19.233l.617-.358A.812.812,0,0,0-20-20.008a.643.643,0,0,0-.067-.553.625.625,0,0,0-.454-.333.882.882,0,0,0-.6.133.8.8,0,0,0-.4.446.655.655,0,0,0,.08.548,2.021,2.021,0,0,0,.441.535m-.134.862a1.462,1.462,0,0,1-1.121.176,1.492,1.492,0,0,1-.942-.746,4.21,4.21,0,0,1-.352-.952l.578-.156a4.5,4.5,0,0,0,.3.807.8.8,0,0,0,.538.408.956.956,0,0,0,.664-.124,1.817,1.817,0,0,1-.46-.522,1.374,1.374,0,0,1-.2-1,1.276,1.276,0,0,1,.668-.862,1.379,1.379,0,0,1,1.108-.176,1.329,1.329,0,0,1,.8.652,1.366,1.366,0,0,1,.175,1.012,1.3,1.3,0,0,1-.667.853Z" transform="translate(23.539 21.569)" fill="#f8f8fa"/>
    </g>
    <g id="Group_590" data-name="Group 590" transform="translate(31.498 39.719)">
      <path id="Path_677" data-name="Path 677" d="M-81.727-94.585l1.89-5.189a1,1,0,0,0-.6-1.273.993.993,0,0,0-1.27.595L-83.252-96.2l-1.615-.589a.993.993,0,0,0-1.274.592.993.993,0,0,0,.592,1.273l2.55.929a.988.988,0,0,0,.759-.034.989.989,0,0,0,.513-.559m2.96,5.819.4.194-.276-.253c.247-.268.5-.535.746-.794,2.021-2.123,3.926-4.134,2.278-7.675l-1.975-4.259c-1.184-2.552-1.668-3.6-1.718-3.745,0,.011-.066-.027-.127-.027l-3.162,1.457-3.159-.268-.088.016a.2.2,0,0,0-.075.062l-1.9,2.625-2.979,1.391a.176.176,0,0,0-.091.221c.043.088.668,1.433,1.631,3.5l2.067,4.431c1.335,2.865,3.443,3.262,5.518,3.262.607,0,1.224-.037,1.822-.072.355-.027.721-.046,1.09-.062m-2.913.884c-2.214,0-4.68-.439-6.2-3.7l-2.064-4.429c-.963-2.065-1.59-3.4-1.643-3.525a.935.935,0,0,1,.465-1.192l2.8-1.305,1.785-2.472a.96.96,0,0,1,.362-.3.912.912,0,0,1,.4-.087l3.034.256,2.908-1.358a.951.951,0,0,1,1.2.381c.084.211.8,1.769,1.718,3.736l1.975,4.261c1.866,4-.409,6.4-2.415,8.512-.245.256-.491.516-.734.782a1,1,0,0,1-.3.215.941.941,0,0,1-.343.084c-.368.018-.727.036-1.081.062-.583.035-1.237.074-1.869.074" transform="translate(91.651 106.07)" fill="#f4f4f4"/>
    </g>
  </g>
</svg>
