<svg xmlns="http://www.w3.org/2000/svg" width="49.629" height="58.769" viewBox="0 0 49.629 58.769"><defs><style>.a{fill:#69b643;}</style></defs><g transform="translate(0 0)"><g transform="translate(0 0)"><path class="a" d="M-415.083-175.427a22.483,22.483,0,0,0-23.961-20.9A22.483,22.483,0,0,0-460-173.971a22.757,22.757,0,0,0,.157,2.658l-4.571,9.273a2.442,2.442,0,0,0,1.113,3.27,2.443,2.443,0,0,0,1.009.25c1.247.039,2.109.065,2.723.065V-156c0,7.647,1.887,12.074,11.486,12.074l4.16.137v5.2a.98.98,0,0,0,.979.98.98.98,0,0,0,.98-.98v-6.138a.98.98,0,0,0-.947-.979l-5.139-.17c-7.418,0-9.56-2.266-9.56-10.115v-3.467a.979.979,0,0,0-.975-.984q-.048,0-.1,0h-.131c-.2,0-.9,0-3.428-.059a.477.477,0,0,1-.4-.235.47.47,0,0,1,0-.464l4.7-9.54a.98.98,0,0,0,.091-.562,20.752,20.752,0,0,1-.176-2.7,20.524,20.524,0,0,1,20.477-20.57,20.524,20.524,0,0,1,20.57,20.477,20.524,20.524,0,0,1-6.948,15.439.98.98,0,0,0-.333.738v19.211a.966.966,0,0,0,.953.979h.026a.979.979,0,0,0,.979-.979v-18.78a22.248,22.248,0,0,0,7.222-17.938" transform="translate(464.663 196.381)"/></g><g transform="translate(19.189 15.999)"><path class="a" d="M-194.461-29.234l-3.918-3.265a.98.98,0,0,0-1.254,0l-3.918,3.265a.98.98,0,0,0-.195,1.372.98.98,0,0,0,1.372.195.987.987,0,0,0,.077-.064l2.312-1.92v.157a9.273,9.273,0,0,1-9.351,9.175,9.377,9.377,0,0,1-6.615-2.69.979.979,0,0,0-1.379-.136.979.979,0,0,0-.136,1.378.965.965,0,0,0,.143.142,11.342,11.342,0,0,0,16.04-.129,11.343,11.343,0,0,0,3.256-7.739v-.17l2.318,1.959a.979.979,0,0,0,1.384-.053.979.979,0,0,0-.053-1.384.957.957,0,0,0-.077-.064Z" transform="translate(217.688 32.726)"/></g><g transform="translate(12.116 8.161)"><path class="a" d="M-79.769-90.424a.979.979,0,0,0-1.378-.124l-2.24,1.868a9.7,9.7,0,0,1-.072-1.11A9.423,9.423,0,0,1-74.1-99.266,9.234,9.234,0,0,1-67.5-96.5a.979.979,0,0,0,1.385-.042.98.98,0,0,0,.006-1.336,11.18,11.18,0,0,0-7.993-3.343A11.388,11.388,0,0,0-85.418-89.791a11.682,11.682,0,0,0,.072,1.228l-2.383-1.959a.98.98,0,0,0-1.372.195.98.98,0,0,0,.118,1.307l3.918,3.265a.979.979,0,0,0,1.254,0l3.918-3.265a.979.979,0,0,0,.146-1.377l-.022-.026" transform="translate(89.297 101.225)"/></g></g></svg>