<?xml version="1.0" encoding="utf-8"?>
<!-- Generator: Adobe Illustrator 15.0.0, SVG Export Plug-In . SVG Version: 6.00 Build 0)  -->
<!DOCTYPE svg PUBLIC "-//W3C//DTD SVG 1.1//EN" "http://www.w3.org/Graphics/SVG/1.1/DTD/svg11.dtd">
<svg version="1.1" id="Layer_1" xmlns="http://www.w3.org/2000/svg" xmlns:xlink="http://www.w3.org/1999/xlink" x="0px" y="0px"
	 width="23.316px" height="23.316px" viewBox="0 0 23.316 23.316" enable-background="new 0 0 23.316 23.316" xml:space="preserve">
<path fill="#FFFFFF" d="M11.655,5.594c-3.32,0.007-6.01,2.696-6.017,6.017c-0.01,3.314,2.669,6.008,5.983,6.018
	c0.011,0,0.022,0,0.033,0c3.321-0.007,6.011-2.697,6.018-6.018C17.649,8.297,14.969,5.616,11.655,5.594z M11.655,15.466l0.004-0.005
	c-2.125-0.008-3.847-1.726-3.858-3.851c0.009-2.125,1.729-3.846,3.854-3.854c2.126,0.009,3.846,1.729,3.855,3.854
	C15.5,13.737,13.781,15.456,11.655,15.466z M19.273,5.453c0,0.753-0.61,1.362-1.362,1.362c-0.752-0.001-1.361-0.61-1.361-1.362
	s0.609-1.362,1.361-1.363C18.662,4.09,19.273,4.7,19.273,5.453z M21.436,1.927C20.125,0.634,18.34-0.063,16.5,0H6.816
	C3.266-0.214,0.214,2.49,0,6.04c-0.016,0.259-0.016,0.518,0,0.775v9.638c-0.069,1.878,0.646,3.7,1.974,5.029
	c1.324,1.232,3.081,1.891,4.889,1.833h9.591c1.822,0.062,3.595-0.597,4.936-1.833c1.303-1.323,2-3.127,1.927-4.982V6.816
	C23.374,4.999,22.697,3.237,21.436,1.927z M21.248,16.5c0.046,1.284-0.449,2.529-1.363,3.432c-0.942,0.837-2.173,1.275-3.432,1.222
	H6.863c-1.259,0.054-2.489-0.385-3.432-1.222c-0.879-0.938-1.337-2.194-1.269-3.479V6.816c-0.06-1.269,0.398-2.507,1.269-3.432
	c0.938-0.845,2.172-1.283,3.432-1.222h9.685c1.269-0.06,2.507,0.398,3.432,1.269c0.844,0.923,1.298,2.136,1.27,3.385V16.5z"/>
</svg>
