<?xml version="1.0" encoding="utf-8"?>
<!-- Generator: Adobe Illustrator 15.0.0, SVG Export Plug-In . SVG Version: 6.00 Build 0)  -->
<!DOCTYPE svg PUBLIC "-//W3C//DTD SVG 1.1//EN" "http://www.w3.org/Graphics/SVG/1.1/DTD/svg11.dtd">
<svg version="1.1" id="Layer_1" xmlns="http://www.w3.org/2000/svg" xmlns:xlink="http://www.w3.org/1999/xlink" x="0px" y="0px"
	 width="24.523px" height="22.979px" viewBox="0 0 24.523 22.979" enable-background="new 0 0 24.523 22.979" xml:space="preserve">
<path fill="#FFFFFF" d="M0.051,7.66l6.087-0.039v15.357H0.051V7.66z M3.082-0.001C1.384-0.004,0.005,1.369,0,3.068v0.001
	c0.005,1.697,1.385,3.068,3.082,3.063c0.001,0,0.001,0,0.001,0C4.78,6.137,6.16,4.765,6.164,3.068
	C6.16,1.369,4.78-0.004,3.082-0.001z M18.743,7.03c-3.76,0-4.76,2.52-4.76,2.52l0.039-1.928H9.234L9.153,22.959h4.95v-9.408
	c0.265-1.362,1.453-2.349,2.841-2.36c1.393,0.03,2.543,1.097,2.678,2.483v9.285l4.902-0.002V13.23
	C24.207,9.191,22.503,7.03,18.743,7.03z"/>
</svg>
