<?xml version="1.0" encoding="utf-8"?>
<!-- Generator: Adobe Illustrator 15.0.0, SVG Export Plug-In . SVG Version: 6.00 Build 0)  -->
<!DOCTYPE svg PUBLIC "-//W3C//DTD SVG 1.1//EN" "http://www.w3.org/Graphics/SVG/1.1/DTD/svg11.dtd">
<svg version="1.1" id="Layer_1" xmlns="http://www.w3.org/2000/svg" xmlns:xlink="http://www.w3.org/1999/xlink" x="0px" y="0px"
	 width="25.975px" height="21.109px" viewBox="0 0 25.975 21.109" enable-background="new 0 0 25.975 21.109" xml:space="preserve">
<path fill="#FFFFFF" d="M25.6,2.502c-0.973,0.432-2.004,0.715-3.061,0.839c1.115-0.664,1.95-1.713,2.349-2.948
	c-1.046,0.621-2.19,1.059-3.384,1.294c-1.008-1.075-2.416-1.685-3.891-1.684C14.671,0,12.282,2.384,12.28,5.327
	c0,0.002,0,0.003,0,0.005c0,0.407,0.047,0.813,0.139,1.21C8.133,6.328,4.141,4.305,1.434,0.978C0.96,1.792,0.711,2.717,0.713,3.658
	c-0.002,1.781,0.888,3.446,2.37,4.435C2.237,8.067,1.409,7.839,0.67,7.427c0,0.022,0,0.045,0,0.067
	c0.001,2.537,1.788,4.722,4.274,5.225c-0.456,0.124-0.927,0.187-1.399,0.187c-0.336-0.002-0.671-0.035-1-0.101
	c0.697,2.171,2.697,3.657,4.977,3.7c-1.887,1.482-4.218,2.286-6.618,2.282c-0.425,0-0.849-0.025-1.271-0.075
	c2.437,1.566,5.272,2.397,8.169,2.395c8.316,0.053,15.102-6.647,15.154-14.964c0-0.064,0-0.128,0-0.192c0-0.231,0-0.461-0.016-0.691
	C23.985,4.506,24.885,3.572,25.6,2.502z"/>
</svg>
