<svg xmlns="http://www.w3.org/2000/svg" xmlns:xlink="http://www.w3.org/1999/xlink" width="58.549" height="50.747" viewBox="0 0 58.549 50.747">
  <defs>
    <clipPath id="clip-path">
      <path id="Path_253" data-name="Path 253" d="M0-455.12H58.549v50.747H0Z" transform="translate(0 455.12)" fill="#fff"/>
    </clipPath>
  </defs>
  <g id="Group_262" data-name="Group 262" clip-path="url(#clip-path)">
    <g id="Group_257" data-name="Group 257" transform="translate(9.404 -0.006)">
      <path id="Path_248" data-name="Path 248" d="M-356.545,0h-40.349a4.18,4.18,0,0,0-4.4,3.882v8.463a.99.99,0,0,0,.99.99.99.99,0,0,0,.99-.99V3.906A2.25,2.25,0,0,1-396.9,1.98h40.349a2.229,2.229,0,0,1,2.417,1.964V36.272a2.23,2.23,0,0,1-2.417,1.967H-396.9a2.228,2.228,0,0,1-2.414-1.967V31.645a.99.99,0,0,0-.99-.99.99.99,0,0,0-.99.99v4.628a4.2,4.2,0,0,0,4.4,3.949h19.033v8.543h-12.576a.99.99,0,0,0-.99.99.99.99,0,0,0,.99.99h27.018a.991.991,0,0,0,.99-.99.991.991,0,0,0-.99-.99h-12.464V40.22h19.335a4.2,4.2,0,0,0,4.4-3.949V3.946A4.2,4.2,0,0,0-356.545,0" transform="translate(401.293 0.008)" fill="#69b643"/>
    </g>
    <g id="Group_258" data-name="Group 258" transform="translate(26.387 14.184)">
      <path id="Path_249" data-name="Path 249" d="M-7.895-15.788H13.34a.99.99,0,0,0,.99-.99.99.99,0,0,0-.99-.99H-7.895a.99.99,0,0,0-.99.99.99.99,0,0,0,.99.99" transform="translate(8.885 17.769)" fill="#69b643"/>
    </g>
    <g id="Group_259" data-name="Group 259" transform="translate(26.387 20.457)">
      <path id="Path_250" data-name="Path 250" d="M-7.895-15.788H13.34a.99.99,0,0,0,.99-.99.99.99,0,0,0-.99-.99H-7.895a.99.99,0,0,0-.99.99.99.99,0,0,0,.99.99" transform="translate(8.885 17.769)" fill="#69b643"/>
    </g>
    <g id="Group_260" data-name="Group 260" transform="translate(26.387 27.078)">
      <path id="Path_251" data-name="Path 251" d="M-7.895-15.788H13.34a.991.991,0,0,0,.99-.99.991.991,0,0,0-.99-.99H-7.895a.99.99,0,0,0-.99.99.99.99,0,0,0,.99.99" transform="translate(8.885 17.769)" fill="#69b643"/>
    </g>
    <g id="Group_261" data-name="Group 261" transform="translate(0.002 8.236)">
      <path id="Path_252" data-name="Path 252" d="M-81.234-129.844a.99.99,0,0,0,.7-.29l14.313-14.314a.99.99,0,0,0,0-1.4.99.99,0,0,0-1.4,0l-13.72,13.721-8.522-6.067a.991.991,0,0,0-1.382.236.99.99,0,0,0-.169.74.99.99,0,0,0,.4.642l9.2,6.553a.984.984,0,0,0,.573.184" transform="translate(91.428 146.14)" fill="#69b643"/>
    </g>
  </g>
</svg>
