<?xml version="1.0" encoding="utf-8"?>
<!-- Generator: Adobe Illustrator 15.0.0, SVG Export Plug-In . SVG Version: 6.00 Build 0)  -->
<!DOCTYPE svg PUBLIC "-//W3C//DTD SVG 1.1//EN" "http://www.w3.org/Graphics/SVG/1.1/DTD/svg11.dtd">
<svg version="1.1" id="Layer_1" xmlns="http://www.w3.org/2000/svg" xmlns:xlink="http://www.w3.org/1999/xlink" x="0px" y="0px"
	 width="200px" height="65.746px" viewBox="0 0 200 65.746" enable-background="new 0 0 200 65.746" xml:space="preserve">
<g id="Group_103" transform="translate(0 -41.094)">
	<g id="Group_73" transform="translate(123.877 17.111)">
		<path id="Path_88" fill="#6BC249" d="M5.893,53.308c0,3.494,2.832,6.325,6.326,6.327c3.493,0,6.326-2.832,6.326-6.325
			c0-3.494-2.831-6.327-6.324-6.327c-0.002,0-0.002,0-0.002,0C8.725,46.983,5.893,49.815,5.893,53.308 M12.219,41.094
			c6.746,0.002,12.213,5.472,12.211,12.218s-5.472,12.213-12.218,12.211C5.467,65.524-0.001,60.053,0,53.308
			C0.006,46.563,5.473,41.097,12.219,41.094"/>
	</g>
	<g id="Group_74" transform="translate(175.672 17.112)">
		<path id="Path_89" fill="#6BC249" d="M0.689,65.579c-0.352-0.008-0.635-0.289-0.647-0.641c-0.057-1.383-0.057-2.961,0-4.34
			c0.015-0.35,0.296-0.627,0.644-0.639c2.34,0.066,4.525-1.162,5.688-3.192c0.367-0.579,0.642-1.21,0.815-1.873
			c0.115-0.62,0.176-1.248,0.184-1.878c0.018-0.734,0.09-1.466,0.214-2.19c0.255-1.224,0.71-2.397,1.347-3.473
			c1.406-2.535,3.67-4.485,6.386-5.5c1.329-0.511,2.743-0.767,4.168-0.756h0.153c0.175,0.005,0.342,0.076,0.465,0.2
			c0.121,0.125,0.188,0.294,0.185,0.469c-0.01,0.523,0,1.049,0,1.577c0.009,0.869,0.024,1.778-0.024,2.619
			c-0.02,0.339-0.289,0.611-0.629,0.631c-2.443,0.024-4.688,1.355-5.879,3.489c-0.348,0.592-0.594,1.237-0.731,1.909
			c-0.078,0.463-0.117,0.931-0.116,1.4c-0.01,0.28-0.01,0.574-0.027,0.887c-0.211,2.724-1.328,5.299-3.174,7.312
			c-0.844,0.91-1.816,1.689-2.888,2.314c-0.567,0.35-1.168,0.641-1.794,0.865c-1.315,0.514-2.713,0.787-4.124,0.809H0.689z"/>
	</g>
	<g id="Group_75" transform="translate(150.558 17.056)">
		<path id="Path_90" fill="#6BC249" d="M23.329,55.989l-4.123-1.087c-0.406-0.102-0.823,0.121-0.966,0.515
			c-1.085,3.131-4.397,4.9-7.603,4.061c-3.386-0.885-5.412-4.348-4.526-7.733c0.002-0.006,0.003-0.012,0.005-0.019
			c0.654-2.468,2.721-4.307,5.249-4.669v0.008c1.374-0.185,2.771,0.083,3.979,0.762v-6.33c-6.531-1.711-13.215,2.19-14.937,8.72
			c-1.726,6.535,2.173,13.231,8.709,14.958c0.004,0.002,0.007,0.002,0.011,0.004c6.257,1.623,12.703-1.871,14.756-8
			c0.176-0.479-0.069-1.01-0.549-1.187C23.333,55.99,23.331,55.99,23.329,55.989"/>
	</g>
	<g id="Group_77" transform="translate(12.332 0)">
		<path id="Path_92" fill="#6BC249" d="M6.205,42.298l10.209,9.049c1.241,1.254,1.241,3.273,0,4.527L6.205,64.921
			c-3.689,3.691-8.4-0.944-5.077-4.273c2.286-2.281,4.849-4.772,4.849-4.772c1.246-1.252,1.246-3.275,0-4.527L1.128,46.57
			C-2.237,43.209,2.896,38.986,6.205,42.298"/>
	</g>
	<g id="Group_79" transform="translate(97.163 8.639)">
		<path id="Path_94" fill="#6BC249" d="M18.087,61.948V41.912c-0.008-0.442,0.343-0.807,0.785-0.815c0.01,0,0.021,0,0.031,0h4.363
			c0.516-0.007,0.939,0.404,0.946,0.919c0,0.008,0,0.016,0,0.023v19.908c0.011,1.61-0.331,3.203-1,4.667
			c-0.642,1.412-1.546,2.691-2.665,3.768c-1.143,1.066-2.467,1.92-3.911,2.518c-1.494,0.598-3.09,0.904-4.7,0.898
			c-1.613,0.018-3.214-0.289-4.707-0.898c-1.41-0.588-2.691-1.441-3.773-2.518c-1.094-1.068-1.955-2.354-2.526-3.771
			c-0.629-1.474-0.946-3.063-0.933-4.667c-0.01-1.631,0.307-3.248,0.933-4.754c0.571-1.458,1.43-2.788,2.525-3.908
			c1.065-1.131,2.351-2.034,3.774-2.654c1.478-0.674,3.085-1.016,4.709-1c1.093-0.008,2.178,0.188,3.199,0.576v6.528
			c-0.285-0.185-0.586-0.342-0.9-0.472c-0.724-0.323-1.508-0.49-2.301-0.488c-0.822-0.004-1.635,0.162-2.388,0.489
			c-0.765,0.305-1.46,0.759-2.045,1.337c-0.585,0.562-1.056,1.231-1.386,1.971c-0.348,0.745-0.525,1.557-0.52,2.378
			c-0.006,0.812,0.172,1.616,0.52,2.351c0.336,0.726,0.806,1.382,1.386,1.932c0.594,0.57,1.287,1.027,2.045,1.35
			c0.754,0.324,1.566,0.49,2.388,0.486c0.795,0.002,1.582-0.164,2.309-0.486c0.729-0.338,1.396-0.793,1.976-1.35
			c0.576-0.553,1.046-1.208,1.384-1.932C17.929,63.557,18.093,62.756,18.087,61.948"/>
	</g>
	<path fill="#FFFFFF" d="M0,43.724c0-3,3.383-3.111,5.069-1.427l10.205,9.044c1.25,1.249,1.252,3.275,0.003,4.525
		c-0.001,0.001-0.002,0.002-0.003,0.003L5.069,64.92C3.248,66.741,0,66.916,0,63.494V43.724z M62.56,59.213c0-0.552,0.448-1,1-1
		c0.002,0,0.004,0,0.007,0h3.819c0.552-0.003,1.002,0.442,1.005,0.995c0,0.002,0,0.003,0,0.005v22.4c0,0.555-0.45,1.006-1.005,1.006
		l0,0h-3.82c-0.552,0.004-1.003-0.439-1.007-0.992c0-0.006,0-0.01,0-0.014L62.56,59.213z M41.64,70.734
		c-0.005,0.809,0.162,1.61,0.489,2.35c0.336,0.724,0.805,1.378,1.381,1.93c0.577,0.557,1.242,1.014,1.968,1.355
		c0.73,0.322,1.519,0.488,2.317,0.486c0.821,0.002,1.634-0.164,2.389-0.486c0.755-0.328,1.447-0.787,2.042-1.355
		c0.575-0.554,1.044-1.208,1.384-1.93c0.343-0.736,0.52-1.539,0.518-2.35c0.003-0.821-0.173-1.633-0.518-2.378
		c-0.334-0.739-0.803-1.409-1.384-1.976c-0.585-0.578-1.279-1.033-2.042-1.341c-0.755-0.323-1.568-0.488-2.389-0.487
		c-0.798,0-1.587,0.165-2.317,0.487c-0.31,0.134-0.608,0.294-0.89,0.48v-6.537c1.025-0.387,2.112-0.581,3.207-0.572
		c1.624-0.017,3.232,0.325,4.709,1c1.42,0.623,2.701,1.524,3.767,2.65c1.09,1.125,1.948,2.454,2.527,3.909
		c0.625,1.51,0.942,3.13,0.933,4.765c0.011,1.602-0.307,3.188-0.933,4.663c-0.576,1.412-1.437,2.693-2.527,3.76
		c-1.08,1.078-2.359,1.938-3.766,2.529c-1.496,0.604-3.096,0.906-4.709,0.893c-1.612,0.004-3.21-0.299-4.708-0.893
		c-1.442-0.602-2.763-1.457-3.9-2.529c-1.122-1.07-2.026-2.346-2.663-3.76c-0.67-1.462-1.012-3.054-1-4.663V50.825
		c-0.01-0.516,0.4-0.943,0.917-0.953c0.009,0,0.019,0,0.028,0h4.355c0.441-0.011,0.809,0.338,0.82,0.78c0,0.011,0,0.022,0,0.033
		L41.64,70.734z M71.772,59.299c0.017-0.583,0.457-1.067,1.036-1.138h21.119c0.619,0.027,1.108,0.532,1.116,1.151l-0.01,3.665
		c-0.029,0.529-0.267,1.024-0.661,1.378L81.917,75.64c-0.115,0.115-0.18,0.27-0.18,0.434c0.006,0.385,0.322,0.693,0.708,0.689
		h11.834c0.452,0.064,0.782,0.459,0.764,0.914v3.83c-0.02,0.584-0.459,1.064-1.038,1.139H72.892c-0.622-0.021-1.115-0.529-1.12-1.15
		v-3.869c0.026-0.527,0.263-1.021,0.656-1.373l12.244-11.086c0.116-0.113,0.181-0.269,0.18-0.431c0-0.387-0.313-0.7-0.7-0.7
		c-0.002,0-0.004,0-0.007,0H72.534c-0.451-0.063-0.78-0.457-0.762-0.911V59.299z M38.334,91.047l-1.952,12.295h-1l1.95-12.295
		H38.334z M46.258,97.22l-0.966,6.121h-0.983l0.964-6.121c0.024-0.156,0.036-0.312,0.036-0.471c0.027-0.523-0.174-1.033-0.551-1.396
		c-0.402-0.359-0.931-0.547-1.47-0.52c-0.663-0.01-1.307,0.219-1.814,0.645c-0.521,0.445-0.862,1.064-0.956,1.742l-0.96,6.121
		h-0.984l0.966-6.121c0.14-0.932,0.622-1.779,1.352-2.377c0.706-0.609,1.609-0.941,2.542-0.936c0.764-0.033,1.51,0.236,2.076,0.752
		c0.538,0.516,0.829,1.236,0.8,1.979C46.311,96.834,46.293,97.029,46.258,97.22 M54.601,94.306l-0.326,0.912
		c-0.789-0.229-1.604-0.352-2.424-0.369c-1.491-0.115-2.793,0.998-2.909,2.49c-0.002,0.033-0.004,0.066-0.006,0.102l-0.4,2.551
		c-0.036,0.203-0.054,0.41-0.054,0.617c0,1.312,0.715,1.967,2.148,1.967c0.856-0.021,1.706-0.143,2.533-0.363l0.038,0.891
		c-0.891,0.252-1.81,0.387-2.735,0.4c-0.786,0.043-1.559-0.211-2.168-0.709c-0.556-0.527-0.849-1.275-0.8-2.039
		c0.001-0.256,0.02-0.512,0.054-0.764l0.4-2.551c0.127-1.029,0.634-1.973,1.422-2.645c0.735-0.592,1.657-0.902,2.6-0.873
		C52.863,93.926,53.748,94.054,54.601,94.306 M60.466,93.996l-0.328,0.91c-0.24-0.049-0.483-0.074-0.728-0.072
		c-0.668-0.01-1.315,0.232-1.814,0.676c-0.519,0.455-0.852,1.084-0.936,1.768l-0.967,6.064h-0.984l0.966-6.064
		c0.132-0.949,0.609-1.814,1.34-2.434c0.698-0.611,1.595-0.943,2.523-0.938C59.85,93.9,60.161,93.931,60.466,93.996 M63.617,91.719
		c-0.038,0.207-0.147,0.395-0.309,0.529c-0.149,0.137-0.342,0.213-0.544,0.217c-0.198,0.01-0.39-0.07-0.522-0.217
		c-0.126-0.145-0.177-0.342-0.136-0.529c0.036-0.205,0.146-0.389,0.311-0.518c0.157-0.135,0.357-0.209,0.564-0.209
		c0.189-0.008,0.372,0.07,0.5,0.209C63.608,91.342,63.659,91.535,63.617,91.719 M62.998,94.07l-1.475,9.271h-0.985l1.479-9.271
		H62.998z M71.943,94.068l-4.481,9.273H66.04l-1.51-9.273h0.964l1.366,8.363h0.056l4.044-8.363H71.943z M78.374,97.242
		c0.023-0.152,0.035-0.305,0.034-0.459c0.027-0.527-0.175-1.043-0.554-1.412c-0.407-0.361-0.94-0.549-1.484-0.523
		c-0.667-0.01-1.315,0.225-1.822,0.658c-0.523,0.436-0.862,1.055-0.948,1.732l-0.128,0.799h4.774L78.374,97.242z M79.358,97.242
		l-0.273,1.691h-5.756l-0.183,1.184c-0.024,0.164-0.037,0.328-0.038,0.494c-0.026,0.535,0.175,1.059,0.556,1.436
		c0.406,0.365,0.939,0.555,1.484,0.527c0.892-0.018,1.779-0.139,2.643-0.363l0.036,0.891c-0.918,0.264-1.87,0.398-2.825,0.4
		c-0.77,0.033-1.522-0.236-2.094-0.754c-0.543-0.525-0.835-1.258-0.8-2.012c0-0.209,0.018-0.416,0.054-0.621l0.456-2.875
		c0.142-0.934,0.624-1.779,1.354-2.377c0.706-0.611,1.61-0.943,2.544-0.938c0.767-0.031,1.516,0.24,2.086,0.754
		c0.547,0.518,0.842,1.248,0.81,2c-0.001,0.189-0.019,0.379-0.054,0.566 M83.329,90.426l-2.04,12.916h-0.984l2.022-12.734
		L83.329,90.426z M96.318,97.22l-0.967,6.121H94.37l0.963-6.121c0.024-0.168,0.036-0.338,0.036-0.51
		c0.029-0.508-0.152-1.004-0.5-1.375c-0.365-0.346-0.856-0.527-1.358-0.5c-0.637-0.008-1.252,0.227-1.722,0.656
		c-0.5,0.449-0.825,1.062-0.918,1.729l-0.964,6.121h-0.984l0.966-6.121c0.022-0.156,0.034-0.312,0.034-0.471
		c0.028-0.52-0.161-1.025-0.52-1.4c-0.368-0.355-0.865-0.543-1.376-0.52c-0.628-0.01-1.236,0.221-1.7,0.645
		c-0.492,0.459-0.81,1.074-0.9,1.742l-0.963,6.119h-0.985l0.966-6.119c0.138-0.922,0.602-1.764,1.307-2.373
		c0.662-0.604,1.526-0.938,2.422-0.936c1.155-0.09,2.198,0.688,2.441,1.82c0.6-1.123,1.771-1.824,3.044-1.82
		c0.727-0.031,1.435,0.24,1.958,0.746c0.513,0.521,0.786,1.234,0.754,1.965c-0.001,0.201-0.018,0.402-0.052,0.6 M103.896,97.242
		c0.023-0.152,0.035-0.305,0.035-0.459c0.027-0.529-0.175-1.043-0.556-1.412c-0.407-0.361-0.94-0.549-1.483-0.523
		c-0.668-0.008-1.314,0.225-1.823,0.658c-0.522,0.438-0.86,1.055-0.946,1.732l-0.128,0.799h4.773L103.896,97.242z M104.881,97.242
		l-0.273,1.691h-5.756l-0.183,1.184c-0.024,0.164-0.036,0.328-0.036,0.494c-0.026,0.535,0.175,1.057,0.554,1.436
		c0.407,0.365,0.941,0.553,1.486,0.527c0.893-0.018,1.779-0.139,2.643-0.363l0.035,0.891c-0.918,0.264-1.868,0.398-2.824,0.4
		c-0.772,0.035-1.527-0.236-2.1-0.756c-0.543-0.525-0.834-1.258-0.8-2.012c0-0.209,0.018-0.416,0.054-0.621l0.456-2.875
		c0.144-0.934,0.629-1.779,1.362-2.375c0.705-0.611,1.608-0.943,2.541-0.938c0.767-0.031,1.515,0.24,2.084,0.754
		c0.547,0.518,0.842,1.248,0.811,2c-0.002,0.189-0.019,0.379-0.053,0.566 M113.333,97.22l-0.966,6.121h-0.984l0.967-6.121
		c0.023-0.156,0.037-0.312,0.037-0.471c0.025-0.523-0.177-1.033-0.554-1.396c-0.403-0.357-0.931-0.545-1.47-0.52
		c-0.66-0.01-1.304,0.219-1.809,0.645c-0.523,0.443-0.864,1.062-0.957,1.742l-0.967,6.119h-0.984l0.967-6.119
		c0.141-0.934,0.624-1.781,1.355-2.377c0.705-0.609,1.607-0.943,2.54-0.936c0.765-0.033,1.511,0.236,2.076,0.752
		c0.538,0.516,0.829,1.236,0.8,1.979C113.386,96.834,113.368,97.029,113.333,97.22 M119.745,94.068l-0.144,0.838h-2.006
		l-1.328,8.434h-0.985l1.331-8.436h-1.348l-0.057-0.838h1.55l0.454-2.912l1.018-0.236l-0.489,3.15H119.745z M126.084,97.242
		c0.023-0.152,0.035-0.305,0.036-0.459c0.026-0.527-0.175-1.043-0.554-1.412c-0.408-0.361-0.941-0.549-1.486-0.523
		c-0.668-0.008-1.314,0.227-1.821,0.662c-0.522,0.438-0.86,1.057-0.948,1.732l-0.125,0.799h4.771L126.084,97.242z M127.068,97.242
		l-0.272,1.691h-5.757l-0.18,1.184c-0.024,0.164-0.036,0.328-0.036,0.494c-0.028,0.535,0.173,1.057,0.553,1.436
		c0.405,0.365,0.939,0.555,1.483,0.527c0.892-0.018,1.777-0.139,2.641-0.363l0.038,0.891c-0.918,0.264-1.868,0.398-2.824,0.4
		c-0.771,0.033-1.522-0.236-2.095-0.754c-0.543-0.525-0.834-1.258-0.801-2.012c0-0.209,0.02-0.416,0.057-0.621l0.454-2.875
		c0.142-0.934,0.625-1.779,1.356-2.377c0.705-0.611,1.607-0.943,2.541-0.938c0.767-0.031,1.516,0.24,2.086,0.754
		c0.547,0.518,0.844,1.246,0.812,2c-0.001,0.189-0.019,0.379-0.056,0.566 M138.58,94.287l-0.326,0.893
		c-0.661-0.209-1.35-0.318-2.042-0.328c-0.532-0.021-1.058,0.133-1.494,0.438c-0.421,0.318-0.659,0.822-0.638,1.35
		c0,0.533,0.341,0.947,1.018,1.236c0.623,0.256,1.248,0.514,1.879,0.77c0.646,0.33,1.044,1.002,1.023,1.729
		c0.029,0.875-0.352,1.717-1.029,2.271c-0.701,0.574-1.584,0.879-2.488,0.855c-0.855,0.012-1.707-0.123-2.516-0.4l0.33-0.891
		c0.756,0.232,1.541,0.355,2.332,0.363c0.557,0.016,1.104-0.143,1.564-0.451c0.411-0.262,0.689-0.686,0.765-1.166
		c0.013-0.104,0.019-0.207,0.019-0.311c-0.03-0.602-0.428-1.123-1-1.311c-0.633-0.254-1.259-0.514-1.877-0.783
		c-0.64-0.309-1.039-0.965-1.021-1.676c0.001-0.166,0.02-0.33,0.056-0.492c0.1-0.701,0.473-1.338,1.037-1.768
		c0.627-0.477,1.399-0.721,2.186-0.691C137.113,93.918,137.865,94.041,138.58,94.287 M142.55,91.719
		c-0.036,0.209-0.146,0.395-0.31,0.529c-0.15,0.137-0.344,0.213-0.547,0.217c-0.195,0.01-0.386-0.07-0.518-0.217
		c-0.126-0.145-0.176-0.342-0.136-0.529c0.036-0.205,0.146-0.389,0.31-0.518c0.157-0.135,0.357-0.209,0.564-0.209
		c0.189-0.008,0.372,0.07,0.5,0.209C142.541,91.342,142.592,91.535,142.55,91.719 M141.93,94.07l-1.473,9.271h-0.984l1.478-9.271
		H141.93z M155.467,97.22l-0.964,6.121h-0.983l0.965-6.121c0.023-0.168,0.036-0.338,0.037-0.51c0.028-0.508-0.152-1.004-0.5-1.375
		c-0.365-0.346-0.855-0.527-1.356-0.5c-0.638-0.008-1.255,0.227-1.726,0.656c-0.5,0.451-0.825,1.062-0.918,1.729l-0.965,6.121
		h-0.984l0.966-6.121c0.024-0.156,0.036-0.312,0.037-0.471c0.026-0.518-0.162-1.021-0.519-1.396
		c-0.367-0.355-0.865-0.543-1.375-0.52c-0.628-0.01-1.236,0.223-1.699,0.645c-0.492,0.459-0.811,1.074-0.9,1.742l-0.963,6.119
		h-0.985l0.966-6.119c0.137-0.924,0.599-1.766,1.303-2.377c0.662-0.605,1.526-0.939,2.423-0.936c1.154-0.092,2.198,0.688,2.438,1.82
		c0.602-1.123,1.771-1.822,3.045-1.82c0.728-0.031,1.436,0.238,1.959,0.746c0.514,0.521,0.787,1.234,0.754,1.965
		c-0.001,0.201-0.02,0.402-0.056,0.6 M163.211,97.312c0.023-0.15,0.035-0.303,0.034-0.455c0.022-0.539-0.179-1.062-0.554-1.449
		c-0.393-0.379-0.922-0.58-1.467-0.559c-0.672-0.006-1.321,0.238-1.822,0.686c-0.523,0.459-0.865,1.088-0.965,1.777l-0.711,4.479
		c0.664,0.48,1.457,0.754,2.277,0.783c0.654,0.02,1.291-0.207,1.786-0.637c0.548-0.475,0.898-1.137,0.981-1.857L163.211,97.312z
		 M164.195,97.312l-0.438,2.768c-0.114,0.977-0.592,1.871-1.338,2.51c-0.714,0.605-1.624,0.932-2.56,0.918
		c-0.814-0.014-1.607-0.27-2.277-0.732l-0.641,4.062h-0.981l1.492-9.525c0.147-0.949,0.637-1.811,1.376-2.422
		c0.701-0.621,1.605-0.965,2.542-0.967c0.767-0.027,1.512,0.254,2.067,0.783c0.547,0.535,0.842,1.277,0.813,2.041
		C164.25,96.937,164.23,97.127,164.195,97.312 M168.273,90.426l-2.039,12.916h-0.985l2.022-12.734L168.273,90.426z M174.959,97.242
		c0.024-0.152,0.037-0.305,0.036-0.459c0.026-0.527-0.175-1.043-0.554-1.412c-0.408-0.361-0.942-0.549-1.487-0.523
		c-0.667-0.01-1.313,0.225-1.82,0.658c-0.522,0.438-0.86,1.057-0.948,1.732l-0.125,0.799h4.771L174.959,97.242z M175.943,97.242
		l-0.272,1.691h-5.757l-0.182,1.184c-0.025,0.164-0.037,0.328-0.039,0.494c-0.025,0.535,0.177,1.059,0.558,1.436
		c0.405,0.365,0.938,0.557,1.483,0.529c0.892-0.016,1.779-0.137,2.643-0.361l0.036,0.889c-0.918,0.266-1.868,0.4-2.824,0.4
		c-0.771,0.035-1.523-0.238-2.095-0.756c-0.543-0.525-0.834-1.258-0.801-2.012c0-0.209,0.02-0.416,0.057-0.621l0.454-2.875
		c0.143-0.934,0.626-1.779,1.356-2.377c0.705-0.611,1.607-0.943,2.541-0.938c0.767-0.031,1.516,0.24,2.086,0.754
		c0.547,0.518,0.844,1.246,0.812,2c-0.001,0.189-0.02,0.379-0.054,0.566 M183.085,94.287l-0.328,0.893
		c-0.66-0.209-1.348-0.318-2.04-0.328c-0.532-0.021-1.057,0.133-1.494,0.438c-0.421,0.318-0.659,0.822-0.638,1.35
		c0,0.533,0.34,0.945,1.021,1.236c0.619,0.256,1.245,0.514,1.875,0.77c0.646,0.33,1.045,1.002,1.024,1.729
		c0.03,0.877-0.353,1.717-1.032,2.271c-0.699,0.576-1.582,0.879-2.488,0.855c-0.854,0.014-1.705-0.123-2.514-0.4l0.328-0.891
		c0.756,0.232,1.542,0.355,2.333,0.363c0.557,0.016,1.104-0.141,1.566-0.451c0.411-0.262,0.69-0.686,0.767-1.166
		c0.011-0.104,0.016-0.207,0.016-0.311c-0.029-0.602-0.427-1.123-1-1.311c-0.633-0.254-1.258-0.514-1.875-0.783
		c-0.641-0.311-1.039-0.965-1.021-1.676c0.001-0.164,0.02-0.33,0.055-0.492c0.1-0.703,0.473-1.338,1.037-1.768
		c0.627-0.477,1.4-0.721,2.188-0.691C181.619,93.918,182.37,94.041,183.085,94.287"/>
	<g id="Group_101" transform="translate(194.569 6.412)">
		<path id="Path_116" fill="#6BC249" d="M0.635,43.278v-1.652h0.913c0.52,0,0.779,0.275,0.779,0.822
			c0.008,0.22-0.067,0.435-0.213,0.6c-0.144,0.16-0.352,0.248-0.566,0.239L0.635,43.278z M2.699,43.245
			c0.168-0.233,0.256-0.513,0.252-0.8c0.01-0.362-0.131-0.713-0.39-0.968c-0.272-0.259-0.638-0.396-1.013-0.382h-1.549v4.711h0.636
			v-2h0.752l0.953,2h0.661l-0.989-2.079C2.289,43.649,2.533,43.479,2.699,43.245"/>
	</g>
	<g id="Group_102" transform="translate(191.925 4.769)">
		<path id="Path_117" fill="#6BC249" d="M4.037,48.598c-1.915-0.001-3.468-1.554-3.468-3.469c0.002-1.915,1.553-3.466,3.468-3.468
			c1.915,0.002,3.466,1.553,3.468,3.468C7.505,47.045,5.952,48.597,4.037,48.598 M4.037,41.098C1.81,41.1,0.005,42.903,0,45.129
			c0.002,2.23,1.808,4.038,4.037,4.041c2.229-0.003,4.036-1.811,4.037-4.041c-0.003-2.228-1.81-4.033-4.037-4.035"/>
	</g>
</g>
</svg>
