<?xml version="1.0" encoding="utf-8"?>
<!-- Generator: Adobe Illustrator 15.0.0, SVG Export Plug-In . SVG Version: 6.00 Build 0)  -->
<!DOCTYPE svg PUBLIC "-//W3C//DTD SVG 1.1//EN" "http://www.w3.org/Graphics/SVG/1.1/DTD/svg11.dtd">
<svg version="1.1" id="selo" xmlns="http://www.w3.org/2000/svg" xmlns:xlink="http://www.w3.org/1999/xlink" x="0px" y="0px"
	 width="83.299px" height="84.963px" viewBox="0 0 83.299 84.963" enable-background="new 0 0 83.299 84.963" xml:space="preserve">
<g>
	<g id="Group_166" transform="translate(0 0)">
		<g id="Group_167">
			<g id="Group_163">
				<path id="Path_173" fill="#E23B3B" d="M46.022,0.269l-2.545,0.765c-1.192,0.358-2.463,0.358-3.656,0l-2.545-0.765
					c-1.961-0.59-4.086-0.198-5.708,1.054l-2.1,1.625c-0.984,0.76-2.17,1.214-3.41,1.306l-2.669,0.2
					c-2.032,0.15-3.868,1.266-4.937,3l-1.39,2.258c-0.661,1.073-1.626,1.925-2.773,2.448l-2.437,1.111
					c-1.84,0.839-3.17,2.505-3.581,4.485l-0.541,2.607c-0.259,1.245-0.886,2.383-1.8,3.267l-1.919,1.861
					c-1.447,1.403-2.142,3.41-1.872,5.408l0.357,2.639c0.172,1.268-0.043,2.557-0.618,3.7l-1.2,2.4c-0.901,1.793-0.901,3.907,0,5.7
					l1.2,2.399c0.574,1.144,0.79,2.434,0.618,3.701L2.14,54.076c-0.27,1.997,0.425,4.005,1.872,5.407l1.919,1.861
					c0.914,0.885,1.541,2.022,1.8,3.268l0.542,2.606c0.411,1.98,1.741,3.646,3.581,4.485l2.437,1.111
					c1.146,0.523,2.111,1.375,2.772,2.447l1.39,2.26c1.068,1.734,2.904,2.85,4.936,3l2.67,0.199c1.24,0.092,2.426,0.547,3.41,1.307
					l2.105,1.625c1.621,1.251,3.746,1.644,5.707,1.054l2.546-0.765c1.192-0.359,2.463-0.359,3.654,0l2.547,0.765
					c1.961,0.59,4.085,0.197,5.705-1.054l2.106-1.625c0.984-0.76,2.171-1.214,3.41-1.307l2.669-0.199
					c2.032-0.15,3.869-1.266,4.938-3l1.391-2.258c0.66-1.074,1.625-1.926,2.771-2.449l2.438-1.111
					c1.84-0.839,3.17-2.505,3.581-4.485l0.542-2.606c0.26-1.244,0.887-2.383,1.8-3.266l1.92-1.861
					c1.447-1.404,2.142-3.412,1.872-5.409l-0.367-2.652c-0.172-1.267,0.043-2.558,0.617-3.7l1.2-2.399
					c0.901-1.794,0.901-3.907,0-5.7l-1.2-2.4c-0.574-1.143-0.789-2.433-0.617-3.7l0.356-2.639c0.27-1.998-0.425-4.004-1.872-5.408
					l-1.92-1.862c-0.914-0.885-1.541-2.022-1.801-3.267l-0.541-2.606c-0.41-1.98-1.74-3.646-3.582-4.485l-2.436-1.111
					c-1.146-0.522-2.111-1.375-2.771-2.448l-1.391-2.259c-1.068-1.734-2.905-2.85-4.937-3l-2.669-0.2
					c-1.24-0.092-2.426-0.546-3.409-1.306l-2.103-1.61C50.618,0.465,49.254,0,47.851,0C47.231,0,46.616,0.091,46.022,0.269"/>
			</g>
		</g>
	</g>
	<path id="Path_172" fill="#FFFFFF" d="M46.263,24.597c-0.094-0.141-0.258-0.217-0.426-0.196l-5.175,0.608l-3.437-3.916
		c-0.162-0.186-0.442-0.205-0.628-0.044c-0.075,0.065-0.126,0.154-0.145,0.251l-1.017,5.11l-4.786,2.059
		c-0.226,0.097-0.331,0.358-0.235,0.584c0.039,0.091,0.107,0.166,0.193,0.214l4.545,2.546l0.479,5.189
		c0.022,0.245,0.238,0.425,0.483,0.403c0.098-0.009,0.19-0.05,0.263-0.117l3.827-3.536l5.082,1.147
		c0.24,0.054,0.479-0.097,0.533-0.337c0.021-0.096,0.012-0.195-0.029-0.285l-2.182-4.732l2.662-4.479
		c0.086-0.146,0.083-0.328-0.01-0.47"/>
	<g>
		<polygon fill="#FFFFFF" points="32.532,50.077 31.574,46.503 34.143,48.956 34.777,48.785 35.763,45.296 36.75,48.946 
			38.072,48.592 36.423,42.51 35.266,42.82 34.037,47.203 30.744,44.032 29.579,44.345 31.211,50.432 		"/>
		<path fill="#FFFFFF" d="M42.489,47.52c1.913-0.513,2.974-2.224,2.486-4.041s-2.262-2.768-4.175-2.255
			c-1.922,0.516-2.971,2.232-2.486,4.041C38.8,47.073,40.567,48.035,42.489,47.52z M41.123,42.423
			c1.087-0.291,2.116,0.282,2.426,1.438c0.311,1.157-0.295,2.167-1.382,2.458c-1.087,0.292-2.116-0.279-2.426-1.437
			C39.431,43.726,40.036,42.715,41.123,42.423z"/>
		<path fill="#FFFFFF" d="M49.584,43.706c0.1,0.374-0.164,0.743-0.999,0.967c-0.73,0.196-1.565,0.141-2.179-0.096l-0.194,1.188
			c0.651,0.272,1.702,0.3,2.668,0.041c1.738-0.467,2.349-1.562,2.076-2.58c-0.6-2.234-3.931-0.512-4.231-1.634
			c-0.103-0.382,0.135-0.781,0.97-1.004c0.539-0.145,1.163-0.145,1.815,0.025l0.148-1.186c-0.661-0.205-1.493-0.178-2.259,0.027
			c-1.73,0.464-2.334,1.548-2.057,2.583C45.949,44.299,49.278,42.566,49.584,43.706z"/>
		<polygon fill="#FFFFFF" points="52.248,39.497 53.572,44.437 54.98,44.059 53.656,39.119 55.604,38.597 55.297,37.45 
			49.992,38.872 50.3,40.019 		"/>
		<path fill="#FFFFFF" d="M23.974,55.166l-2.635,0.706l1.632,6.087l1.409-0.378l-0.45-1.678l1.226-0.328
			c1.626-0.437,2.417-1.553,2.053-2.91C26.843,55.301,25.6,54.729,23.974,55.166z M24.77,58.447l-1.147,0.308l-0.566-2.112
			l1.147-0.308c0.86-0.23,1.4,0.045,1.58,0.713C25.96,57.71,25.63,58.217,24.77,58.447z"/>
		<path fill="#FFFFFF" d="M30.623,53.271c-1.922,0.515-2.972,2.232-2.487,4.04c0.485,1.81,2.252,2.771,4.174,2.256
			c1.913-0.514,2.974-2.224,2.486-4.042C34.31,53.709,32.536,52.758,30.623,53.271z M31.989,58.367
			c-1.087,0.291-2.116-0.281-2.427-1.438c-0.31-1.156,0.295-2.166,1.382-2.457c1.087-0.292,2.116,0.28,2.426,1.437
			C33.681,57.065,33.075,58.075,31.989,58.367z"/>
		<path fill="#FFFFFF" d="M37.675,51.492l-2.635,0.706l1.632,6.087l1.408-0.377l-0.45-1.678l1.226-0.329
			c1.626-0.436,2.417-1.553,2.054-2.91C40.545,51.627,39.301,51.057,37.675,51.492z M38.472,54.773l-1.148,0.309l-0.566-2.112
			l1.148-0.309c0.86-0.23,1.4,0.045,1.579,0.713C39.662,54.036,39.332,54.543,38.472,54.773z"/>
		<path fill="#FFFFFF" d="M46.752,49.059l-1.392,0.373l0.9,3.356c0.311,1.156-0.058,1.768-0.918,1.998
			c-0.853,0.229-1.484-0.114-1.795-1.271l-0.9-3.356l-1.408,0.377l0.914,3.409c0.48,1.791,1.771,2.508,3.502,2.044
			s2.491-1.73,2.011-3.521L46.752,49.059z"/>
		<polygon fill="#FFFFFF" points="50.875,53.248 49.551,48.309 48.142,48.686 49.774,54.772 54.235,53.577 53.927,52.43 		"/>
		<path fill="#FFFFFF" d="M55.358,46.751l-1.081,6.814l1.444-0.387l0.189-1.449l2.825-0.758l0.889,1.16l1.479-0.396l-4.354-5.357
			L55.358,46.751z M56.076,50.538l0.34-2.589l1.59,2.071L56.076,50.538z"/>
		<path fill="#FFFFFF" d="M65.238,48.53c0.7-0.553,0.981-1.346,0.737-2.259c-0.366-1.364-1.609-1.936-3.236-1.499l-2.635,0.706
			l1.633,6.087l1.408-0.378l-0.455-1.695l1.227-0.328l0.069-0.02l1.629,1.381l1.514-0.405L65.238,48.53z M63.538,48.062L62.39,48.37
			l-0.568-2.121l1.148-0.308c0.86-0.23,1.4,0.044,1.579,0.712C64.727,47.315,64.398,47.832,63.538,48.062z"/>
	</g>
	<g id="Ellipse_7" transform="translate(7.783 7.946)">
		<circle fill="none" cx="34.5" cy="34.5" r="34.5"/>
		<circle fill="none" stroke="#FFFFFF" stroke-width="1.8" cx="34.5" cy="34.5" r="33.6"/>
	</g>
</g>
</svg>
