<?xml version="1.0" encoding="utf-8"?>
<!-- Generator: Adobe Illustrator 15.0.0, SVG Export Plug-In . SVG Version: 6.00 Build 0)  -->
<!DOCTYPE svg PUBLIC "-//W3C//DTD SVG 1.1//EN" "http://www.w3.org/Graphics/SVG/1.1/DTD/svg11.dtd">
<svg version="1.1" id="Layer_1" xmlns="http://www.w3.org/2000/svg" xmlns:xlink="http://www.w3.org/1999/xlink" x="0px" y="0px"
	 width="63.848px" height="73.09px" viewBox="0 0 63.848 73.09" enable-background="new 0 0 63.848 73.09" xml:space="preserve">
<g>
	<path fill="#69B643" d="M56.278,25.975h-0.002h-5.762L50.504,12.7c0.004-0.022,0.006-0.045,0.006-0.068
		c0.001-0.405-0.163-0.794-0.455-1.076l-9.981-11.05C39.786,0.185,39.377,0.001,38.947,0H14.831c-0.399,0-0.783,0.158-1.065,0.441
		c-0.283,0.283-0.441,0.666-0.44,1.066l0.013,24.468H7.574c-4.181,0.005-7.568,3.393-7.572,7.573V53.09
		c0.004,4.181,3.392,7.568,7.572,7.573h5.765v10.922c0,0.831,0.675,1.505,1.506,1.506h34.167c0.831-0.001,1.505-0.675,1.506-1.506
		V60.663h5.761c4.181-0.005,7.568-3.393,7.572-7.573V33.548C63.845,29.368,60.458,25.981,56.278,25.975z M40.458,5.427l5.148,5.7
		h-5.148V5.427z M37.446,3.012v9.62c0.001,0.832,0.675,1.506,1.507,1.506h8.54l0.01,11.837H16.346L16.334,3.012H37.446z
		 M16.346,70.079V59.607c0.049-0.145,0.074-0.297,0.075-0.45c-0.001-0.153-0.026-0.306-0.075-0.451V47.885h31.155l0.001,22.194
		H16.346z M56.275,57.65h-5.761v-9.767h2.907c0.831-0.001,1.505-0.675,1.506-1.506c-0.001-0.831-0.675-1.505-1.506-1.506H10.426
		c-0.831,0.001-1.506,0.675-1.506,1.506s0.675,1.505,1.506,1.506h2.909v9.767H7.57c-2.517-0.003-4.557-2.043-4.56-4.561V33.548
		c0.003-2.517,2.043-4.558,4.56-4.561h48.7c2.518,0.003,4.558,2.044,4.561,4.561l0.005,19.542
		C60.832,55.607,58.792,57.647,56.275,57.65z"/>
	<path fill="#69B643" d="M27.526,57.148c0.251-0.001,0.492-0.1,0.668-0.278l2.659-2.66v7.692c0.001,0.523,0.424,0.947,0.947,0.949
		c0.523-0.001,0.947-0.426,0.948-0.949V54.21l2.66,2.66c0.177,0.179,0.418,0.278,0.67,0.278c0.251,0,0.492-0.1,0.67-0.278
		c0.178-0.178,0.277-0.419,0.276-0.67c0.001-0.251-0.099-0.493-0.276-0.67l-4.274-4.277c-0.178-0.178-0.419-0.278-0.67-0.276
		c-0.251-0.002-0.492,0.099-0.67,0.276l-4.277,4.277c-0.178,0.177-0.278,0.419-0.277,0.67c-0.001,0.251,0.1,0.493,0.277,0.67
		C27.035,57.049,27.276,57.147,27.526,57.148z"/>
	<path fill="#69B643" d="M39.291,61.669c-0.523,0.001-0.946,0.425-0.947,0.948v2.615H25.268v-2.615c0-0.523-0.425-0.947-0.948-0.948
		c-0.522,0.001-0.946,0.425-0.946,0.948v3.564c0,0.521,0.424,0.945,0.946,0.946H39.29c0.522-0.001,0.946-0.424,0.947-0.946v-3.564
		C40.238,62.094,39.814,61.67,39.291,61.669z"/>
</g>
</svg>
