<?xml version="1.0" encoding="utf-8"?>
<!-- Generator: Adobe Illustrator 15.0.0, SVG Export Plug-In . SVG Version: 6.00 Build 0)  -->
<!DOCTYPE svg PUBLIC "-//W3C//DTD SVG 1.1//EN" "http://www.w3.org/Graphics/SVG/1.1/DTD/svg11.dtd">
<svg version="1.1" id="Layer_1" xmlns="http://www.w3.org/2000/svg" xmlns:xlink="http://www.w3.org/1999/xlink" x="0px" y="0px"
	 width="60.027px" height="76.684px" viewBox="0 0 60.027 76.684" enable-background="new 0 0 60.027 76.684" xml:space="preserve">
<g>
	<path fill="#69B643" d="M60.02,12.724l-0.004-0.001c0-0.048-0.008-0.094-0.014-0.141s-0.016-0.09-0.027-0.133
		c-0.01-0.043-0.023-0.086-0.039-0.128c-0.016-0.043-0.033-0.084-0.053-0.125c-0.02-0.039-0.041-0.078-0.062-0.115
		c-0.023-0.038-0.049-0.076-0.076-0.112c-0.027-0.034-0.055-0.068-0.084-0.1s-0.061-0.063-0.092-0.093
		c-0.031-0.03-0.064-0.06-0.1-0.086s-0.07-0.051-0.109-0.073c-0.037-0.023-0.078-0.046-0.117-0.065
		c-0.041-0.019-0.082-0.036-0.125-0.053c-0.043-0.016-0.086-0.029-0.129-0.04c-0.045-0.012-0.092-0.021-0.139-0.028
		c-0.023,0-0.045-0.013-0.068-0.015c-11-1.1-19.611-3.338-28.5-11.077c-0.577-0.502-1.452-0.441-1.954,0.136
		c-0.03,0.037-0.059,0.077-0.084,0.117c-8.94,7.714-16.405,9.767-26.994,10.823c-0.709,0.071-1.248,0.667-1.248,1.379v32.444
		c0,0.123,0.017,0.245,0.049,0.363c5.618,20.718,28.274,30.56,29.235,30.97c0.171,0.073,0.355,0.11,0.542,0.111
		c0.184,0,0.366-0.037,0.536-0.108c0.973-0.408,23.889-10.25,29.506-30.971c0.02-0.073,0.035-0.147,0.043-0.224l0.107-1.071
		c0-0.046,0.008-0.094,0.008-0.141V12.798C60.028,12.771,60.022,12.748,60.02,12.724z M57.254,44.096l-0.092,0.888
		c-4.85,17.638-23.873,27.183-27.336,28.791c-3.434-1.612-22.183-11.137-27.06-28.725V14.042
		c10.037-1.11,17.823-3.411,26.646-10.817c8.744,7.252,17.539,9.673,27.841,10.812V44.096z"/>
	<path fill="#69B643" d="M16.844,29.879h-1.61c-0.765,0-1.385,0.62-1.385,1.386v20.316c0,0.765,0.62,1.385,1.385,1.385h27.705
		c0.766,0,1.387-0.62,1.387-1.385V31.264c-0.002-0.766-0.621-1.385-1.387-1.386h-1.33c-0.779-6.242-6.092-10.923-12.382-10.911
		C22.934,18.955,17.622,23.636,16.844,29.879z M41.553,50.196H16.619V32.65h24.934V50.196z M38.809,29.879H19.64
		c0.758-4.701,4.821-8.152,9.583-8.14h0.002C33.987,21.726,38.051,25.177,38.809,29.879z"/>
</g>
</svg>
