<?xml version="1.0" encoding="utf-8"?>
<!-- Generator: Adobe Illustrator 15.0.0, SVG Export Plug-In . SVG Version: 6.00 Build 0)  -->
<!DOCTYPE svg PUBLIC "-//W3C//DTD SVG 1.1//EN" "http://www.w3.org/Graphics/SVG/1.1/DTD/svg11.dtd">
<svg version="1.1" id="Layer_1" xmlns="http://www.w3.org/2000/svg" xmlns:xlink="http://www.w3.org/1999/xlink" x="0px" y="0px"
	 width="61.051px" height="70.514px" viewBox="0 0 61.051 70.514" enable-background="new 0 0 61.051 70.514" xml:space="preserve">
<g>
	<path fill="#69B643" d="M9.525,61.052c-0.103,0.38,0,0.786,0.27,1.071c0.295,0.304,0.742,0.402,1.138,0.253
		c0.15-0.054,0.287-0.14,0.4-0.253l1.469-1.469l1.716-1.716c0.024-0.027,0.044-0.054,0.068-0.078l-0.002,0.004
		c0.182-0.188,0.283-0.438,0.282-0.7v-6.34c0.004-0.555-0.438-1.011-0.992-1.024H13.66c-0.553,0.015-0.991,0.472-0.982,1.024v5.885
		l-1.569,1.567l-1.312,1.308C9.667,60.714,9.573,60.875,9.525,61.052z"/>
	<path fill="#69B643" d="M60.701,15.667l-0.002,0.001L45.71,0.338c-0.204-0.212-0.486-0.332-0.78-0.334h-15.5
		c-3.239,0.117-5.773,2.834-5.663,6.073v8.025h-9.857c-3.239,0.116-5.773,2.833-5.663,6.072v25.007
		c-0.001,0-0.002,0.001-0.003,0.001c-4.978,2.002-8.241,6.827-8.247,12.192c0.008,7.253,5.885,13.13,13.138,13.139
		c4.96-0.004,9.496-2.799,11.731-7.227c0.393-0.776,0.707-1.59,0.938-2.429c0.312-1.135,0.469-2.307,0.469-3.483
		c-0.008-7.252-5.885-13.13-13.138-13.138c-0.881,0-1.759,0.088-2.623,0.264V20.174c-0.066-1.944,1.456-3.575,3.4-3.644h14.366
		v11.689c-0.065,1.945,1.456,3.575,3.4,3.645H43.27v17.2c-0.021,0.041-0.039,0.083-0.06,0.123h0.06v8.025
		c0.064,1.944-1.457,3.574-3.4,3.644H25.807c-0.231,0.839-0.545,1.652-0.938,2.429h15c3.238-0.116,5.771-2.833,5.663-6.072v-8.024
		h9.856c3.239-0.117,5.772-2.833,5.663-6.072V16.548C61.055,16.219,60.928,15.904,60.701,15.667z M13.136,46.182
		c6.179,0.006,11.186,5.014,11.193,11.192c0,1.184-0.188,2.359-0.558,3.483c-0.28,0.853-0.662,1.668-1.137,2.429
		c-2.042,3.282-5.633,5.278-9.498,5.281C6.958,68.559,1.952,63.552,1.945,57.375c0.003-4.283,2.449-8.19,6.3-10.065
		c0.723-0.353,1.483-0.625,2.265-0.813C11.37,46.288,12.251,46.182,13.136,46.182z M46.061,4.051l11.031,11.287h-9.9
		c-0.646-0.023-1.153-0.566-1.131-1.214V4.051z M31.674,29.432c-0.647-0.023-1.154-0.566-1.132-1.215V18.149l11.031,11.283H31.674z
		 M58.786,43.117c0.065,1.944-1.456,3.574-3.4,3.643h-9.854V30.646c0.002-0.328-0.124-0.645-0.351-0.881l-14.99-15.334
		c-0.205-0.213-0.486-0.333-0.781-0.335h-3.379V6.072c-0.066-1.944,1.455-3.575,3.4-3.645h14.366v11.69
		c-0.065,1.944,1.456,3.575,3.399,3.644H58.79L58.786,43.117z"/>
</g>
</svg>
