<svg xmlns="http://www.w3.org/2000/svg" width="68.314" height="50.113" viewBox="0 0 68.314 50.113">
  <g id="_5-SmartOCR" data-name="5-SmartOCR" transform="translate(-12 -19)">
    <path id="Path_370" data-name="Path 370" d="M67.284,66.727h-52.9v-34.2h51.7v5.139a1.193,1.193,0,1,0,2.386,0v-17.5A1.193,1.193,0,0,0,67.284,19H13.193A1.193,1.193,0,0,0,12,20.193V67.92a1.193,1.193,0,0,0,1.193,1.193h54.09a1.193,1.193,0,1,0,0-2.386ZM66.09,21.386v8.75h-51.7v-8.75Z" fill="#fff"/>
    <path id="Path_371" data-name="Path 371" d="M19.693,28.386h4.773a1.193,1.193,0,1,0,0-2.386H19.693a1.193,1.193,0,0,0,0,2.386Z" transform="translate(-1.33 -1.432)" fill="#fff"/>
    <path id="Path_372" data-name="Path 372" d="M33.693,28.386h4.773a1.193,1.193,0,1,0,0-2.386H33.693a1.193,1.193,0,0,0,0,2.386Z" transform="translate(-4.193 -1.432)" fill="#fff"/>
    <path id="Path_373" data-name="Path 373" d="M88.108,58.582v-.1a1.166,1.166,0,0,0,0-.119V57.9a1.166,1.166,0,0,0,0-.119v-.1l-.048-.111L88,57.46l-.04-.072C87.631,56.983,79.867,47,69.813,47c-11.041,0-19.186,9.967-19.528,10.389l-.064.1-.064.1a1.17,1.17,0,0,0-.048.119v.1a1.177,1.177,0,0,0,0,.127s0,.064,0,.1v.342a1.177,1.177,0,0,0,0,.127v.1a1.17,1.17,0,0,0,.048.119l.064.1.064.1c.342.406,8.487,10.373,19.528,10.373,10.054,0,17.818-9.983,18.144-10.412l.04-.072.064-.1Zm-18.3,8.3c-8.249,0-14.954-6.515-17.015-8.75,2.06-2.235,8.75-8.75,17.015-8.75,7.406,0,13.713,6.539,15.638,8.75C83.534,60.348,77.218,66.886,69.813,66.886Z" transform="translate(-7.795 -5.728)" fill="#fff"/>
    <path id="Path_374" data-name="Path 374" d="M72.261,52.5a6.761,6.761,0,1,0,6.761,6.761A6.761,6.761,0,0,0,72.261,52.5Zm0,11.136a4.375,4.375,0,1,1,4.375-4.375A4.375,4.375,0,0,1,72.261,63.636Z" transform="translate(-10.944 -6.853)" fill="#fff"/>
  </g>
</svg>
