<svg xmlns="http://www.w3.org/2000/svg" viewBox="0 0 39.92 46.46">
  <defs>
    <style>
      .cls-1 {
        fill: #fff;
      }

      .cls-2 {
        fill: #82be5c;
      }

    </style>
  </defs>
  <title>Ativo 1</title>
  <g id="Camada_2" data-name="Camada 2">
    <g id="Camada_1-2" data-name="Camada 1">
      <path class="cls-1"
        d="M20.05,0c4.84,0,9.68-.06,14.51,0C37.2.1,38.53.86,39,3.4a4.17,4.17,0,0,1-.7,3c-2.22,2.83-4.62,5.51-7,8.22S26.47,20,24.08,22.75s-5.54,2.78-7.94.07c-2.14-2.4-4.33-4.77-6.47-7.18-2.46-2.76-4.93-5.52-7.32-8.35A5.16,5.16,0,0,1,1,3c.39-2,1.86-3,4.23-3Z" />
      <path class="cls-2"
        d="M39.31,22c-1.2-2.35-3.54-3.21-6.24-2.09-2.13.88-3.34,2.81-4.89,4.36s-3,3-4.56,4.51v0a5.28,5.28,0,0,1-3.38,1.48h-.56a5.3,5.3,0,0,1-3.38-1.48v0c-1.56-1.47-3.05-3-4.56-4.51S9,20.79,6.85,19.91c-2.7-1.12-5-.26-6.24,2.09s-.55,4.48,1.08,6.37C3.1,30,4.57,31.62,6,33.25c3.53,4,7,8,10.59,12a4.37,4.37,0,0,0,3.2,1.24h.32a4.37,4.37,0,0,0,3.2-1.24c3.6-3.92,7.07-8,10.59-12,1.44-1.63,2.91-3.23,4.32-4.88C39.86,26.48,40.49,24.32,39.31,22Z" />
    </g>
  </g>
</svg>
