<svg xmlns="http://www.w3.org/2000/svg" width="40.401" height="49.674" viewBox="0 0 40.401 49.674"><defs><style>.a{fill:#fff;}</style></defs><g transform="translate(-115.791 -197.53)"><path class="a" d="M155.2,213.426h-3.643v-.331a15.564,15.564,0,1,0-31.129,0v.331h-3.643a.994.994,0,0,0-.993.993V246.21a.994.994,0,0,0,.993.993H155.2a.994.994,0,0,0,.993-.993V214.419A.994.994,0,0,0,155.2,213.426Zm-32.785-.331a13.578,13.578,0,0,1,27.155,0v.331H122.414Zm31.791,32.122H117.778v-29.8h36.427v29.8Z"/><path class="a" d="M254.782,424.105a1.7,1.7,0,0,0-2.345-.527h0l-1.7,1.071v-2.005a1.7,1.7,0,0,0-3.4,0v2.022l-1.7-1.071a1.7,1.7,0,0,0-1.818,2.872l2.039,1.292-2.039,1.292a1.7,1.7,0,0,0,1.818,2.855l1.7-1.071v2.005a1.7,1.7,0,0,0,3.4,0v-2.023l1.7,1.071a1.7,1.7,0,1,0,1.818-2.873h0l-2.039-1.274,2.039-1.292a1.7,1.7,0,0,0,.527-2.345Z" transform="translate(-113.046 -198.495)"/></g></svg>